<?xml version="1.0" standalone="no"?>
<!DOCTYPE svg PUBLIC "-//W3C//DTD SVG 20010904//EN"
 "http://www.w3.org/TR/2001/REC-SVG-20010904/DTD/svg10.dtd">
<svg version="1.0" xmlns="http://www.w3.org/2000/svg"
 width="1536.000000pt" height="1536.000000pt" viewBox="0 0 1536.000000 1536.000000"
 preserveAspectRatio="xMidYMid meet">

<g transform="translate(0.000000,1536.000000) scale(0.100000,-0.100000)"
fill="#000000" stroke="none">
<path d="M4403 10940 c-23 -5 -53 -16 -67 -25 -58 -38 -55 96 -59 -2288 -3
-1470 -8 -2191 -15 -2200 -7 -8 -7 -29 0 -64 9 -46 14 -53 34 -53 25 0 33 -23
14 -35 -17 -11 9 -35 36 -35 15 0 24 -6 24 -16 0 -12 6 -15 22 -11 24 7 48 -8
48 -30 0 -18 50 -62 71 -63 9 0 18 -3 22 -6 10 -10 -4 -34 -22 -35 -17 -1 32
-16 61 -18 26 -2 51 28 37 45 -9 11 -6 16 12 23 13 5 24 8 24 7 1 0 -2 -37 -5
-81 -5 -69 -7 -76 -15 -50 -5 17 -8 36 -7 43 2 6 -4 12 -13 12 -19 0 -20 -34
0 -50 17 -14 20 -30 4 -30 -5 0 -8 4 -5 9 3 5 -1 12 -10 15 -22 9 -24 8 -24
-10 0 -15 -13 -16 -105 -12 -58 3 -105 2 -105 -3 0 -5 57 -9 128 -10 70 0 138
-2 152 -3 14 -2 77 -7 140 -10 63 -4 153 -14 200 -22 79 -14 93 -14 200 5 197
33 575 44 650 19 8 -3 40 -13 70 -22 31 -9 77 -33 105 -56 28 -22 63 -46 78
-53 31 -15 33 -18 89 -124 49 -93 55 -130 29 -174 -12 -19 -21 -41 -21 -50 0
-19 -43 -44 -64 -36 -8 3 -18 2 -21 -3 -4 -6 19 -10 57 -10 44 0 59 -3 48 -10
-8 -5 -30 -10 -49 -10 -43 0 -111 -19 -132 -37 -9 -8 -27 -15 -40 -17 -13 -2
-43 -8 -67 -15 -24 -7 -52 -9 -64 -5 -13 4 -24 1 -29 -7 -7 -12 -9 -12 -9 0 0
11 -3 11 -15 1 -9 -7 -19 -10 -22 -6 -4 4 -1 11 7 16 9 5 -1 7 -27 3 -23 -3
-49 0 -59 6 -16 10 -14 11 16 10 70 -4 107 1 126 17 18 14 18 15 -6 8 -14 -4
-58 -7 -98 -6 -61 0 -74 -2 -82 -19 -6 -10 -16 -19 -23 -19 -29 -1 -40 -24
-72 -146 -18 -71 -43 -158 -54 -194 -26 -85 -115 -424 -136 -520 -9 -41 -23
-97 -30 -125 -7 -27 -16 -68 -20 -90 -6 -37 -27 -127 -106 -455 -70 -291 -82
-336 -98 -354 -15 -17 -27 -18 -161 -12 -232 9 -335 16 -680 42 -292 21 -439
28 -1065 50 -99 3 -213 9 -253 13 -48 5 -69 4 -62 -3 5 -5 99 -14 207 -19 109
-5 199 -10 200 -11 1 -1 3 -36 4 -79 1 -42 4 -77 6 -77 2 0 8 12 13 26 6 14
14 23 19 20 5 -3 0 -29 -11 -58 -17 -45 -20 -80 -21 -239 -1 -103 -5 -185 -9
-182 -5 2 -8 0 -8 -6 0 -5 4 -12 9 -16 25 -15 -9 -87 -37 -77 -7 2 -15 -3 -18
-11 -7 -19 14 -60 27 -52 5 4 9 2 9 -3 0 -27 138 -93 225 -107 173 -30 470
-34 665 -10 221 28 407 86 473 149 15 15 27 30 28 34 0 4 2 22 2 41 1 19 8 36
15 39 9 3 11 -3 6 -22 -4 -17 -2 -26 6 -26 6 0 8 5 5 10 -3 6 -1 10 4 10 6 0
11 -4 11 -10 0 -5 18 -15 40 -21 22 -7 40 -16 40 -21 0 -4 18 -8 40 -8 22 0
40 5 40 10 0 6 -18 10 -40 10 -49 0 -53 17 -5 26 25 4 39 2 50 -10 18 -17 34
-20 108 -16 40 1 47 -1 48 -17 0 -11 7 -5 18 18 23 50 40 69 62 69 11 0 19 4
19 9 0 5 13 23 29 40 23 25 37 31 70 31 23 0 56 6 74 14 25 10 49 11 97 4 36
-5 115 -8 175 -6 91 2 112 6 123 21 15 20 48 23 55 5 4 -10 6 -10 6 0 1 10 6
10 22 1 15 -7 24 -8 28 -1 3 6 56 13 116 16 117 5 173 10 270 26 33 5 112 12
175 16 63 4 133 13 155 20 22 8 58 14 80 14 23 0 46 5 51 10 26 26 250 29
2749 35 2062 5 2298 9 2374 41 33 14 34 16 18 28 -10 8 -15 20 -11 30 4 10 1
16 -7 16 -8 0 -5 6 7 15 19 14 19 14 -1 15 -12 0 -27 -6 -34 -12 -11 -10 -14
-10 -18 0 -3 7 -22 12 -48 12 -24 0 -46 4 -49 9 -4 5 26 9 67 9 39 -1 83 3 96
7 31 9 71 45 51 45 -7 0 -21 -7 -30 -15 -12 -11 -51 -18 -126 -24 -126 -9
-692 -16 -1276 -16 -223 1 -405 -2 -403 -6 3 -3 -10 -6 -27 -7 -18 0 -27 2
-21 6 6 4 -782 8 -1750 9 -1764 2 -2128 5 -2352 25 -66 5 -167 12 -225 15 -58
2 -109 9 -114 13 -12 12 13 42 29 36 7 -2 17 0 21 4 5 5 36 11 69 13 33 2 67
6 75 9 8 3 28 9 45 14 22 7 37 24 60 68 26 52 30 70 29 135 -1 93 -22 171 -62
237 -33 53 -88 88 -221 138 -62 23 -78 24 -134 1 -15 -6 -17 -4 -13 16 3 13 8
38 10 54 3 17 22 118 43 226 l38 197 626 -2 c469 -1 629 2 640 11 8 6 38 15
67 19 29 4 54 10 56 13 7 11 102 4 125 -8 22 -12 218 -13 226 -1 6 9 85 -1 85
-12 0 -5 21 -8 48 -7 35 1 58 -5 92 -25 54 -31 65 -32 87 -6 13 14 29 20 58
19 l40 -1 -45 -13 c-45 -14 -45 -14 50 -13 434 2 661 2 753 0 65 -2 107 1 107
7 0 5 -11 9 -24 8 -14 -1 -25 3 -25 8 -1 15 48 13 61 -2 7 -9 41 -13 110 -13
l100 0 -4 30 c-4 24 -1 30 9 25 8 -3 17 -5 19 -5 10 0 3 -29 -9 -34 -6 -3 96
-3 228 0 147 3 242 9 246 16 10 16 131 27 145 13 8 -8 98 -12 305 -14 162 -1
390 -4 507 -6 136 -3 212 -1 212 5 0 6 -10 10 -22 11 -13 0 -17 3 -10 6 7 3
19 20 27 39 17 42 48 48 39 6 -3 -15 -7 -32 -9 -39 -7 -21 19 -29 77 -25 44 3
55 7 51 18 -7 18 4 18 23 -1 12 -12 47 -14 189 -12 110 1 176 -2 179 -8 2 -6
16 -3 33 6 20 11 48 15 85 13 l55 -4 -7 41 c-5 28 -4 39 4 36 6 -2 14 -20 17
-40 7 -43 13 -52 29 -42 9 5 10 26 5 69 -4 33 -9 129 -11 211 -3 155 -8 207
-19 225 -3 5 -1 10 4 10 6 0 11 5 11 10 0 6 -7 10 -16 10 -8 0 -13 3 -11 8 7
11 -34 359 -53 455 -6 27 -10 65 -10 86 0 21 -6 82 -14 137 -8 54 -20 163 -27
242 -7 79 -17 150 -23 158 -12 16 -642 21 -2961 25 -621 1 -1140 5 -1153 10
-15 6 -21 5 -17 -1 4 -6 -25 -10 -79 -10 -51 0 -86 4 -86 10 0 6 -10 10 -22 9
-22 0 -22 -1 -3 -9 13 -5 -23 -9 -97 -9 -65 -1 -117 2 -115 7 3 9 -7 12 -40
11 -25 0 -26 -1 -8 -9 18 -8 17 -9 -8 -9 -16 -1 -26 3 -22 9 3 6 -5 10 -19 10
-14 0 -28 -4 -31 -10 -3 -5 -14 -10 -23 -10 -15 0 -15 2 -2 11 11 8 2 9 -35 4
-96 -11 -120 -12 -142 -4 -12 4 -36 4 -53 -1 -21 -6 -28 -6 -24 2 5 8 1 9 -12
3 -24 -10 -33 -10 -111 0 -43 5 -63 4 -63 -3 0 -11 -86 -10 -97 2 -3 3 -12 1
-19 -5 -8 -7 -25 -8 -41 -4 -33 8 -470 8 -483 0 -5 -3 -11 -1 -15 4 -3 6 -35
8 -73 5 -214 -16 -508 -27 -499 -18 6 7 26 11 65 13 7 1 10 6 6 13 -5 8 4 9
34 5 22 -4 52 -3 66 3 17 6 26 6 26 0 0 -9 -14 -14 -32 -11 -5 0 -8 -4 -8 -10
0 -7 7 -8 18 -4 9 5 24 8 33 9 10 0 15 6 12 13 -4 10 1 11 18 5 13 -5 44 -7
68 -4 30 3 46 0 52 -9 6 -10 9 -11 9 -1 0 7 14 12 35 12 19 0 35 3 35 8 0 4
93 7 206 7 113 0 208 3 211 8 2 4 9 7 14 7 6 0 8 -4 5 -8 -3 -5 8 -6 24 -4 17
2 32 12 35 22 3 11 20 21 40 24 31 6 50 26 25 26 -20 0 -9 18 15 24 14 4 25
13 25 21 0 20 10 19 26 -2 9 -14 16 -15 24 -7 8 8 70 10 211 7 143 -4 199 -2
199 6 0 6 -19 12 -42 12 -33 2 -36 3 -14 6 42 7 76 -4 70 -22 -5 -11 2 -15 26
-15 18 0 29 -4 25 -10 -3 -5 1 -10 9 -10 12 0 16 -10 16 -40 l0 -40 155 0
c127 0 155 3 155 14 0 9 -15 17 -40 21 -34 6 -40 10 -40 32 l0 25 -74 -7 c-41
-3 -96 -3 -123 1 -45 7 -46 8 -18 15 30 7 30 7 -7 8 -36 1 -59 16 -37 23 7 2
35 1 63 -3 92 -13 196 -11 196 5 0 12 -57 14 -359 12 -198 0 -355 2 -350 5 5
3 -8 5 -29 5 -22 -1 -47 -8 -57 -16 -11 -9 -16 -10 -11 -2 8 14 3 14 -214 17
-124 1 -145 4 -148 18 -2 10 6 17 25 20 23 3 22 4 -9 6 -21 0 -37 -2 -37 -6 5
-32 -4 -42 -43 -51 -43 -9 -40 -14 15 -26 17 -4 27 -13 27 -24 0 -11 -3 -13
-8 -6 -4 7 -30 11 -60 11 -28 0 -47 -4 -41 -8 8 -5 8 -8 0 -13 -6 -4 -9 -11
-6 -16 3 -5 1 -11 -4 -14 -13 -8 -42 4 -35 15 3 5 1 9 -5 9 -5 0 -12 -8 -14
-17 -4 -17 -5 -17 -6 0 0 10 9 22 22 27 17 7 18 9 5 9 -37 2 -16 21 22 21 22
0 40 5 40 11 0 7 -11 8 -30 4 -32 -7 -44 10 -12 18 9 3 2 5 -17 6 -32 1 -33 0
-29 -33 l4 -33 -51 0 c-27 0 -44 2 -37 4 6 3 12 11 12 18 0 7 -6 16 -12 18 -9
4 -6 11 9 24 22 18 21 18 -94 18 -74 0 -126 5 -141 12 -19 10 -23 10 -19 0 3
-7 -5 -12 -22 -13 -14 -1 -20 1 -13 3 6 3 12 11 12 18 0 10 -9 12 -34 8 -19
-3 -36 -1 -40 6 -4 6 -2 11 5 11 7 0 10 3 6 6 -3 3 -19 -3 -36 -15 -16 -12
-31 -17 -33 -12 -1 5 -24 12 -50 16 -44 7 -48 6 -48 -14 0 -11 5 -21 10 -21 6
0 10 5 10 11 0 8 5 7 15 -1 11 -9 12 -17 6 -23 -12 -12 -59 16 -68 39 -3 8
-13 14 -23 14 -11 0 -21 4 -24 9 -9 14 106 22 340 24 147 1 215 -1 225 -9 10
-9 724 -13 2799 -15 2857 -4 3066 -3 3076 12 3 5 -49 9 -118 10 -68 0 -136 2
-153 4 -20 3 -34 -1 -43 -13 -13 -16 -14 -16 -10 3 3 19 11 20 210 20 113 0
202 -3 197 -6 -6 -3 -5 -10 3 -16 14 -12 71 -5 63 7 -8 13 17 17 80 11 43 -4
54 -8 41 -14 -11 -4 -39 -5 -63 -1 -29 4 -43 3 -43 -5 0 -6 9 -11 20 -11 13 0
18 -5 13 -16 -5 -13 7 -15 93 -14 147 3 141 4 163 -37 29 -60 51 -173 211
-1088 11 -60 31 -173 45 -250 15 -77 32 -181 40 -231 7 -50 29 -183 48 -295
20 -112 54 -316 77 -454 23 -137 47 -279 54 -315 22 -105 18 -35 -5 85 -26
142 -77 468 -90 569 -5 43 -12 82 -14 86 -5 8 -32 157 -60 330 -23 146 -100
588 -125 720 -23 124 -42 231 -69 390 -16 96 -41 229 -56 295 -14 66 -29 135
-32 153 -3 17 -9 32 -14 32 -11 0 0 30 18 51 8 10 10 19 5 20 -6 3 -7 136 -2
359 5 195 13 591 19 880 6 289 15 719 21 955 13 520 30 1529 33 1900 2 251 1
272 -17 302 -11 17 -31 37 -45 45 -22 11 -622 13 -3486 14 -1903 1 -3479 -2
-3502 -6z m6868 -325 c0 -60 -3 -193 -6 -295 -3 -102 -10 -414 -15 -695 -6
-280 -15 -712 -20 -960 -6 -247 -14 -679 -20 -960 -5 -280 -13 -615 -16 -742
l-7 -233 -3363 0 -3364 0 0 1995 0 1995 373 3 c204 1 1737 2 3406 2 l3034 0
-2 -110z m-6651 -4205 c0 -5 -2 -10 -4 -10 -3 0 -8 5 -11 10 -3 6 -1 10 4 10
6 0 11 -4 11 -10z m110 -4 c0 -3 -4 -8 -10 -11 -5 -3 -10 -1 -10 4 0 6 5 11
10 11 6 0 10 -2 10 -4z m700 -42 c12 -4 12 -6 1 -14 -8 -4 -25 -4 -38 1 -30
11 -33 11 -33 1 0 -5 10 -14 23 -21 l22 -12 -22 5 c-13 2 -23 -1 -24 -7 0 -9
-2 -9 -5 0 -3 7 -11 10 -18 7 -17 -6 -40 22 -30 37 5 9 11 7 21 -7 13 -18 14
-18 19 2 4 16 12 20 37 16 18 -2 39 -6 47 -8z m-803 -13 c10 -16 9 -19 -11
-23 -18 -4 -22 -1 -19 13 4 12 -2 19 -19 22 -19 4 -18 5 7 6 20 1 34 -6 42
-18z m953 0 c0 -14 -18 -23 -30 -16 -6 4 -8 11 -5 16 8 12 35 12 35 0z m-1284
-28 c-10 -10 -19 5 -10 18 6 11 8 11 12 0 2 -7 1 -15 -2 -18z m1362 20 c-10
-2 -26 -2 -35 0 -10 3 -2 5 17 5 19 0 27 -2 18 -5z m-28 -17 c0 -2 -9 -6 -20
-9 -11 -3 -18 -1 -14 4 5 9 34 13 34 5z m-406 -21 c3 -8 17 -15 31 -15 14 0
25 -4 25 -10 0 -5 12 -10 28 -10 21 -1 24 -3 11 -10 -8 -5 -37 -6 -65 -2 -44
6 -49 10 -52 35 -4 29 12 37 22 12z m269 8 c-7 -2 -19 -2 -25 0 -7 3 -2 5 12
5 14 0 19 -2 13 -5z m70 -4 c-6 -6 -9 -19 -5 -28 5 -14 4 -14 -12 -2 -15 13
-19 13 -26 1 -5 -8 -13 -11 -17 -6 -4 5 -2 11 5 13 7 3 18 11 25 19 7 7 19 13
27 14 10 0 11 -3 3 -11z m862 -10 c10 -15 3 -19 -54 -28 -45 -7 -51 -6 -51 10
0 14 10 19 43 22 23 2 45 4 49 5 4 1 10 -3 13 -9z m-965 -13 c0 -3 -4 -8 -10
-11 -5 -3 -10 -1 -10 4 0 6 5 11 10 11 6 0 10 -2 10 -4z m-265 -26 c4 -6 -5
-10 -19 -10 -14 0 -26 5 -26 10 0 6 9 10 19 10 11 0 23 -4 26 -10z m-535 -39
c0 -10 -7 -22 -16 -25 -8 -3 -12 -2 -9 3 3 5 0 13 -6 17 -8 4 -7 9 2 15 21 13
29 11 29 -10z m-65 -21 c3 -5 2 -10 -4 -10 -5 0 -13 5 -16 10 -3 6 -2 10 4 10
5 0 13 -4 16 -10z m-95 -44 c0 -3 -4 -8 -10 -11 -5 -3 -10 -1 -10 4 0 6 5 11
10 11 6 0 10 -2 10 -4z m60 -6 c0 -5 -2 -10 -4 -10 -3 0 -8 5 -11 10 -3 6 -1
10 4 10 6 0 11 -4 11 -10z m300 0 c8 -5 11 -10 5 -10 -5 0 -17 5 -25 10 -8 5
-10 10 -5 10 6 0 17 -5 25 -10z m5897 4 c-3 -3 -12 -4 -19 -1 -8 3 -5 6 6 6
11 1 17 -2 13 -5z m238 -89 c4 -52 3 -64 -5 -47 -5 13 -20 33 -33 44 -16 14
-17 18 -5 14 10 -3 20 -1 23 4 4 6 -7 10 -23 10 -17 0 -32 6 -36 15 -4 11 2
15 24 15 22 0 30 5 30 17 0 11 3 13 9 8 6 -6 13 -41 16 -80z m-1595 71 c0 -3
-4 -8 -10 -11 -5 -3 -10 -1 -10 4 0 6 5 11 10 11 6 0 10 -2 10 -4z m-3122 -23
c-2 -9 -11 -17 -21 -19 -10 -1 -16 3 -14 9 3 7 10 11 16 10 6 -2 11 2 11 7 0
6 3 10 6 10 3 0 4 -7 2 -17z m1849 -31 c0 -21 3 -48 7 -60 4 -12 4 -22 -1 -22
-18 0 -41 108 -27 123 13 13 21 -3 21 -41z m1703 3 c0 -17 -2 -17 -10 -5 -5 8
-10 24 -10 35 0 17 2 17 10 5 5 -8 10 -24 10 -35z m-4830 -5 c0 -13 -1 -13
-10 0 -5 8 -10 22 -10 30 0 13 1 13 10 0 5 -8 10 -22 10 -30z m1910 21 c0 -11
-7 -27 -16 -35 -9 -10 -11 -16 -4 -16 21 0 4 -25 -18 -26 -28 -2 -28 17 -2 34
11 7 20 20 20 30 0 17 8 32 17 32 2 0 3 -9 3 -19z m1980 4 c0 -8 -2 -15 -4
-15 -2 0 -6 7 -10 15 -3 8 -1 15 4 15 6 0 10 -7 10 -15z m610 -5 c0 -5 -5 -10
-11 -10 -5 0 -7 5 -4 10 3 6 8 10 11 10 2 0 4 -4 4 -10z m-2625 -10 c3 -5 1
-10 -4 -10 -6 0 -11 5 -11 10 0 6 2 10 4 10 3 0 8 -4 11 -10z m-1905 -15 c7
-9 8 -15 2 -15 -5 0 -12 7 -16 15 -3 8 -4 15 -2 15 2 0 9 -7 16 -15z m3867
-27 c-3 -7 -5 -2 -5 12 0 14 2 19 5 13 2 -7 2 -19 0 -25z m1917 16 c9 -23 7
-34 -5 -34 -6 0 -9 6 -6 14 3 7 0 19 -6 25 -8 8 -8 11 0 11 6 0 14 -7 17 -16z
m-3949 -14 c-27 -12 -35 -12 -35 0 0 6 12 10 28 9 24 0 25 -1 7 -9z m4030 0
c3 -5 1 -10 -4 -10 -6 0 -11 5 -11 10 0 6 2 10 4 10 3 0 8 -4 11 -10z m-94
-37 c0 -5 2 -16 4 -25 2 -9 -3 -19 -10 -22 -8 -3 -12 2 -10 12 1 9 -2 23 -8
30 -7 8 -5 12 7 12 9 0 16 -3 17 -7z m-45 -19 c-3 -9 -6 -18 -6 -20 0 -2 -4
-4 -9 -4 -5 0 -7 9 -4 20 3 11 10 20 15 20 6 0 7 -7 4 -16z m-2926 -25 c0 -5
-4 -9 -10 -9 -5 0 -10 7 -10 16 0 8 5 12 10 9 6 -3 10 -10 10 -16z m3183 -6
c-7 -2 -19 -2 -25 0 -7 3 -2 5 12 5 14 0 19 -2 13 -5z m5 -30 c-10 -2 -28 -2
-40 0 -13 2 -5 4 17 4 22 1 32 -1 23 -4z m-1078 -33 c0 -5 -4 -10 -9 -10 -6 0
-13 5 -16 10 -3 6 1 10 9 10 9 0 16 -4 16 -10z m1147 -101 c15 -100 16 -146 5
-153 -5 -3 -8 9 -7 27 3 47 -14 179 -26 201 -8 14 -7 17 2 14 8 -3 18 -38 26
-89z m-282 61 c3 -5 1 -10 -4 -10 -6 0 -11 5 -11 10 0 6 2 10 4 10 3 0 8 -4
11 -10z m158 -27 c-3 -21 -10 -39 -15 -41 -4 -2 -8 -17 -8 -33 0 -20 -4 -28
-11 -23 -7 4 -9 0 -5 -14 4 -11 2 -23 -3 -26 -6 -4 -13 10 -16 31 -3 21 -8 45
-9 54 -2 9 0 23 5 30 6 10 9 4 9 -18 0 -43 16 -50 23 -10 6 36 24 87 31 87 3
0 2 -17 -1 -37z m-4683 -113 l-11 -25 6 25 c2 14 6 52 7 85 l2 60 3 -60 c2
-34 -1 -72 -7 -85z m2333 99 c-4 -4 -14 -4 -22 1 -13 7 -13 11 -1 25 12 15 14
15 23 0 5 -10 5 -21 0 -26z m124 9 c-3 -7 -5 -2 -5 12 0 14 2 19 5 13 2 -7 2
-19 0 -25z m1644 15 c13 -16 12 -17 -3 -4 -10 7 -18 15 -18 17 0 8 8 3 21 -13z
m236 -15 c-3 -7 -5 -2 -5 12 0 14 2 19 5 13 2 -7 2 -19 0 -25z m-1392 12 c-3
-5 -11 -10 -16 -10 -6 0 -7 5 -4 10 3 6 11 10 16 10 6 0 7 -4 4 -10z m682 -22
c-3 -7 -5 -2 -5 12 0 14 2 19 5 13 2 -7 2 -19 0 -25z m-2131 -6 c7 -9 20 -13
33 -9 13 3 21 1 21 -8 0 -21 -27 -25 -45 -5 -20 22 -60 31 -76 16 -9 -8 -9 -6
0 11 12 24 47 21 67 -5z m2589 -20 c-3 -7 2 -27 11 -43 8 -17 13 -36 11 -42
-6 -16 -33 49 -40 98 -6 37 -5 38 9 20 8 -11 12 -25 9 -33z m-3406 21 c6 -44
-2 -94 -14 -90 -14 5 -13 104 1 104 6 0 12 -6 13 -14z m331 -9 c0 -8 -4 -14
-10 -14 -5 0 -10 9 -10 21 0 11 5 17 10 14 6 -3 10 -13 10 -21z m840 17 c0
-14 -18 -23 -31 -15 -8 4 -7 9 2 15 18 11 29 11 29 0z m897 -3 c-2 -7 2 -20 9
-29 8 -8 16 -31 19 -50 5 -33 4 -33 -9 6 -9 29 -18 39 -31 37 -9 -2 -15 0 -13
5 3 4 8 16 11 26 4 9 9 17 13 17 3 0 4 -6 1 -12z m-1357 -24 c0 -8 -5 -12 -10
-9 -6 4 -8 11 -5 16 9 14 15 11 15 -7z m1078 -24 c1 -22 -3 -40 -8 -40 -6 0
-10 18 -10 40 0 22 4 40 8 40 5 0 9 -18 10 -40z m341 3 c-1 -34 -2 -35 -9 -13
-11 36 -11 50 0 50 6 0 10 -17 9 -37z m-2549 5 c0 -16 -3 -19 -11 -11 -6 6 -8
16 -5 22 11 17 16 13 16 -11z m2852 -3 c-5 -31 -20 -33 -16 -2 3 28 2 27 13
27 4 0 6 -11 3 -25z m530 -12 c1 -12 -1 -23 -7 -25 -5 -2 -11 13 -13 32 -4 38
14 32 20 -7z m299 4 c-8 -8 -11 -7 -11 4 0 9 3 19 7 23 4 4 9 2 11 -4 3 -7 -1
-17 -7 -23z m-2628 3 c6 -22 0 -25 -23 -10 -13 9 -13 11 0 20 8 5 16 10 16 10
1 0 4 -9 7 -20z m543 -18 c-10 -10 -29 15 -21 28 6 9 10 8 17 -4 6 -10 7 -20
4 -24z m1464 4 c0 -19 -4 -38 -10 -41 -6 -4 -10 10 -10 34 0 23 5 41 10 41 6
0 10 -15 10 -34z m1170 24 c0 -5 -5 -10 -11 -10 -5 0 -7 5 -4 10 3 6 8 10 11
10 2 0 4 -4 4 -10z m-801 -14 c10 -12 8 -13 -8 -9 -12 3 -21 9 -21 14 0 14 16
11 29 -5z m304 -16 c-7 -28 -13 -25 -13 6 0 14 4 23 9 20 5 -3 7 -15 4 -26z
m-3363 10 c0 -5 -2 -10 -4 -10 -3 0 -8 5 -11 10 -3 6 -1 10 4 10 6 0 11 -4 11
-10z m1719 -35 c1 -5 -6 -2 -15 7 -10 9 -13 21 -8 29 5 9 9 8 15 -7 4 -10 8
-23 8 -29z m-1074 15 c3 -5 -1 -10 -9 -10 -9 0 -16 5 -16 10 0 6 4 10 9 10 6
0 13 -4 16 -10z m1964 -16 c-16 -20 -28 -17 -26 5 1 12 7 17 19 13 14 -3 16
-7 7 -18z m-1359 -4 c0 -15 -19 -22 -40 -15 -29 9 -24 20 10 22 17 1 30 -2 30
-7z m560 6 c0 -3 -4 -8 -10 -11 -5 -3 -10 -1 -10 4 0 6 5 11 10 11 6 0 10 -2
10 -4z m2024 -12 c3 -8 2 -12 -4 -9 -6 3 -10 10 -10 16 0 14 7 11 14 -7z
m-1984 -15 c0 -6 -4 -7 -10 -4 -5 3 -10 11 -10 16 0 6 5 7 10 4 6 -3 10 -11
10 -16z m-2333 -106 c3 -9 -4 -11 -26 -7 -20 4 -31 2 -31 -5 0 -6 7 -11 15
-11 9 0 39 -16 67 -35 28 -20 80 -49 115 -65 34 -16 63 -34 63 -39 0 -6 6 -8
14 -5 16 6 60 -78 74 -141 22 -105 -18 -285 -82 -370 -25 -32 -108 -71 -127
-59 -5 3 -9 0 -9 -7 0 -9 -3 -9 -15 1 -8 6 -23 9 -35 5 -11 -4 -20 -2 -20 4 0
6 -9 11 -20 11 -11 0 -20 5 -20 10 0 6 -14 10 -30 10 -20 0 -38 9 -52 25 -15
18 -24 22 -29 13 -6 -9 -13 -9 -31 -1 -17 9 -19 12 -6 12 9 1 20 6 24 13 4 7
3 8 -5 4 -7 -5 -27 7 -49 28 -20 20 -41 36 -47 37 -5 0 -1 4 10 9 18 8 19 9 1
9 -10 1 -27 13 -38 27 -11 14 -26 23 -34 20 -7 -3 -18 3 -24 12 -8 12 -13 14
-16 5 -3 -7 -10 -13 -16 -13 -7 0 -7 5 1 13 8 11 6 20 -9 37 -20 23 -27 46
-11 36 4 -3 7 8 5 24 -2 17 1 30 6 30 6 0 10 -4 10 -8 0 -4 13 -15 29 -25 28
-16 29 -16 24 2 -3 12 -11 17 -19 14 -31 -12 -12 15 26 36 47 26 51 36 13 26
-20 -4 -25 -3 -18 4 6 6 24 12 40 14 17 2 39 9 50 16 l20 12 -20 -5 c-11 -3
-27 -1 -35 4 -11 7 -11 10 -2 10 32 0 103 43 136 82 43 50 50 71 44 141 l-4
53 45 -1 c26 0 46 -5 48 -12z m4702 -163 c10 -69 17 -127 15 -129 -5 -5 -11
15 -20 64 -7 37 -7 38 -15 15 -8 -22 -8 -21 -3 5 7 41 7 43 1 102 -3 29 -8 57
-12 63 -3 5 -3 16 2 23 9 14 7 24 32 -143z m-3652 124 c-3 -4 3 -18 13 -32 21
-26 26 -52 11 -52 -5 0 -11 9 -14 20 -3 11 -12 20 -20 20 -10 0 -13 8 -9 25 2
14 9 25 15 25 6 0 7 -3 4 -6z m3498 -14 c-4 -11 -2 -20 4 -20 6 0 11 -5 11
-12 0 -8 -6 -6 -16 4 -9 9 -14 24 -11 32 9 23 19 20 12 -4z m-2474 -9 c-9 -6
-10 -11 -2 -15 6 -4 8 -21 5 -39 -11 -60 -18 -62 -24 -7 -6 64 -5 70 18 70 13
0 14 -2 3 -9z m734 -1 c-3 -5 -12 -10 -18 -10 -7 0 -6 4 3 10 19 12 23 12 15
0z m110 0 c3 -5 -1 -10 -9 -10 -9 0 -16 5 -16 10 0 6 4 10 9 10 6 0 13 -4 16
-10z m-1291 -25 c3 -8 1 -17 -4 -20 -6 -4 -10 -17 -10 -31 0 -27 -15 -32 -24
-8 -8 20 -8 69 0 77 9 8 32 -2 38 -18z m1143 19 c-3 -3 -12 -4 -19 -1 -8 3 -5
6 6 6 11 1 17 -2 13 -5z m1036 -9 c-3 -9 -8 -14 -10 -11 -3 3 -2 9 2 15 9 16
15 13 8 -4z m740 -47 c-8 -14 -45 34 -38 50 5 13 9 10 24 -14 10 -16 17 -32
14 -36z m-3151 12 c-7 -18 -11 -20 -17 -10 -5 8 -4 15 3 18 6 2 8 11 5 20 -4
13 -3 14 6 6 8 -7 9 -19 3 -34z m1013 18 c4 -13 25 -40 48 -60 22 -21 38 -40
35 -43 -9 -9 -88 47 -88 62 0 8 -7 16 -15 19 -11 5 -13 10 -5 19 5 6 7 15 3
18 -3 4 -1 7 5 7 6 0 14 -10 17 -22z m840 12 c-3 -5 -16 -15 -28 -21 -22 -12
-22 -12 -3 10 19 21 43 30 31 11z m105 -15 c5 -14 16 -25 24 -25 17 0 41 -28
32 -37 -3 -4 -11 -2 -17 4 -6 6 -18 9 -25 6 -9 -3 -14 2 -14 16 0 12 -4 21
-10 21 -5 0 -10 9 -10 20 0 27 9 25 20 -5z m-2860 1 c0 -17 -14 -29 -23 -20
-8 8 3 34 14 34 5 0 9 -6 9 -14z m60 7 c-1 -20 -18 -33 -35 -27 -17 7 -17 8 1
21 20 14 34 17 34 6z m358 -5 c7 -7 12 -26 12 -42 0 -26 -2 -28 -14 -16 -16
18 -30 70 -18 70 4 0 13 -5 20 -12z m997 -7 c-3 -6 -11 -11 -16 -11 -5 0 -4 6
3 14 14 16 24 13 13 -3z m65 15 c0 -9 -30 -14 -35 -6 -4 6 3 10 14 10 12 0 21
-2 21 -4z m885 -22 c11 -15 20 -34 21 -43 1 -9 4 -32 8 -51 5 -25 4 -31 -3
-20 -5 8 -13 33 -17 55 l-8 40 -7 -30 c-6 -27 -6 -26 -4 7 2 28 0 35 -11 31
-9 -3 -14 2 -14 16 0 28 11 26 35 -5z m335 16 c0 -5 -7 -10 -16 -10 -8 0 -12
5 -9 10 3 6 10 10 16 10 5 0 9 -4 9 -10z m-2604 -47 c-3 -4 -13 2 -20 13 -11
14 -11 21 -3 26 13 8 35 -28 23 -39z m24 37 c0 -5 -5 -10 -11 -10 -5 0 -7 5
-4 10 3 6 8 10 11 10 2 0 4 -4 4 -10z m860 -45 c0 -30 -4 -55 -8 -55 -4 0 -8
25 -8 55 1 30 4 55 9 55 4 0 7 -25 7 -55z m2767 33 c-3 -8 -6 -5 -6 6 -1 11 2
17 5 13 3 -3 4 -12 1 -19z m-2802 2 c3 -5 1 -10 -4 -10 -6 0 -11 5 -11 10 0 6
2 10 4 10 3 0 8 -4 11 -10z m1734 -65 c27 -8 27 -25 1 -18 -24 6 -71 63 -63
76 3 5 13 -5 23 -21 10 -17 28 -33 39 -37z m462 22 c-8 -8 -11 -3 -11 19 1 25
2 27 11 11 8 -14 8 -22 0 -30z m876 21 c0 -13 -1 -17 -4 -10 -3 6 -11 12 -19
12 -8 0 -14 5 -14 10 0 6 8 10 18 10 11 0 18 -8 19 -22z m-3457 -8 c0 -5 -4
-10 -10 -10 -5 0 -10 5 -10 10 0 6 5 10 10 10 6 0 10 -4 10 -10z m80 -20 c0
-10 -4 -22 -10 -25 -6 -4 -10 7 -10 25 0 18 4 29 10 25 6 -3 10 -15 10 -25z
m791 8 c11 -11 17 -23 14 -26 -6 -6 -45 28 -45 40 0 14 12 9 31 -14z m2565 0
c4 -6 2 -14 -4 -16 -7 -2 -12 -19 -12 -39 0 -34 -18 -43 -28 -13 -3 8 0 10 8
5 10 -6 12 -4 7 9 -8 21 1 66 13 66 5 0 12 -5 16 -12z m-3871 -7 c3 -5 1 -12
-5 -16 -5 -3 -10 1 -10 9 0 18 6 21 15 7z m3640 -1 c3 -5 0 -19 -8 -31 -20
-28 -31 -4 -18 39 2 6 21 1 26 -8z m-2659 -37 c-10 -10 -19 5 -10 18 6 11 8
11 12 0 2 -7 1 -15 -2 -18z m2121 -5 c-3 -7 -5 -2 -5 12 0 14 2 19 5 13 2 -7
2 -19 0 -25z m-2297 12 c0 -5 -5 -10 -11 -10 -5 0 -7 5 -4 10 3 6 8 10 11 10
2 0 4 -4 4 -10z m1990 0 c0 -5 -2 -10 -4 -10 -3 0 -8 5 -11 10 -3 6 -1 10 4
10 6 0 11 -4 11 -10z m390 -16 c0 -8 -4 -14 -10 -14 -5 0 -10 9 -10 21 0 11 5
17 10 14 6 -3 10 -13 10 -21z m40 11 c0 -8 -4 -15 -10 -15 -5 0 -7 7 -4 15 4
8 8 15 10 15 2 0 4 -7 4 -15z m797 -17 c-3 -8 -6 -5 -6 6 -1 11 2 17 5 13 3
-3 4 -12 1 -19z m-4857 -5 c-13 -3 -32 -10 -42 -17 -9 -7 -34 -10 -54 -8 -37
5 -37 5 -13 18 13 7 49 13 79 12 30 0 44 -3 30 -5z m4175 -3 c3 -5 -1 -10 -9
-10 -8 0 -18 5 -21 10 -3 6 1 10 9 10 8 0 18 -4 21 -10z m-2625 -60 c0 -5 -5
-10 -11 -10 -5 0 -7 5 -4 10 3 6 8 10 11 10 2 0 4 -4 4 -10z m425 0 c3 -5 1
-10 -4 -10 -6 0 -11 5 -11 10 0 6 2 10 4 10 3 0 8 -4 11 -10z m50 0 c3 -5 1
-10 -4 -10 -6 0 -11 5 -11 10 0 6 2 10 4 10 3 0 8 -4 11 -10z m466 -13 c-13
-13 -26 -3 -16 12 3 6 11 8 17 5 6 -4 6 -10 -1 -17z m909 -16 c0 -5 -9 -11
-20 -14 -11 -3 -20 -1 -20 3 0 5 8 11 18 13 9 3 18 5 20 6 1 0 2 -3 2 -8z m35
0 c3 -5 1 -12 -5 -16 -5 -3 -10 1 -10 9 0 18 6 21 15 7z m1204 -27 c-14 -18
-24 -11 -15 11 3 9 11 13 16 10 8 -5 7 -11 -1 -21z m-4759 -4 c0 -5 -4 -10
-10 -10 -5 0 -10 5 -10 10 0 6 5 10 10 10 6 0 10 -4 10 -10z m2953 -54 c-5
-52 -2 -68 11 -81 9 -9 16 -22 16 -30 0 -21 -11 -45 -21 -45 -4 0 -5 7 -2 17
4 10 2 14 -4 10 -10 -6 -13 18 -15 109 -1 48 6 84 16 84 2 0 1 -29 -1 -64z
m2057 46 c-41 -11 -42 -12 -31 -25 7 -10 7 -19 -3 -33 -8 -10 -19 -39 -26 -64
-7 -25 -19 -59 -26 -77 -8 -17 -13 -38 -12 -45 2 -7 -7 -14 -19 -16 -26 -4
-29 7 -10 27 10 11 9 13 -1 7 -25 -15 -45 22 -38 71 7 50 51 153 66 153 13 0
25 -23 13 -27 -12 -4 -4 -53 9 -53 5 0 7 4 3 9 -16 27 53 99 79 83 6 -3 3 -7
-4 -10z m60 8 c0 -5 -8 -10 -17 -10 -11 0 -14 -3 -7 -8 14 -9 26 -57 17 -66
-4 -3 -12 -22 -19 -41 -10 -29 -9 -35 2 -35 8 0 14 -4 14 -10 0 -14 -46 -12
-57 3 -6 6 -13 21 -17 31 -6 16 -4 17 10 6 13 -12 17 -11 25 1 5 8 9 21 9 29
0 13 -1 13 -10 0 -5 -8 -10 -10 -10 -5 0 9 16 75 25 103 5 14 35 16 35 2z
m-1598 -77 c3 -43 3 -80 2 -82 -2 -2 -10 1 -17 7 -10 8 -13 32 -12 79 3 77 2
73 14 73 5 0 11 -35 13 -77z m1172 -32 c-4 -14 -7 -35 -6 -46 2 -17 0 -17 -8
3 -6 13 -7 34 -4 47 3 13 1 32 -5 42 -11 17 -11 17 -10 -2 4 -55 -1 -75 -19
-75 -10 0 -21 2 -24 5 -8 8 3 55 12 50 5 -3 6 -15 3 -28 -3 -12 -2 -19 2 -15
4 4 9 25 10 45 5 78 4 76 19 64 11 -9 16 -8 22 6 11 24 18 -60 8 -96z m-1340
84 c3 -8 12 -15 21 -15 16 0 19 -17 9 -44 -8 -21 -20 -20 -28 2 -19 54 -23 72
-16 72 4 0 10 -7 14 -15z m846 -9 c0 -18 -17 -29 -30 -21 -8 5 -7 11 1 21 15
18 29 18 29 0z m631 1 c19 -15 31 -68 18 -87 -6 -11 -9 -5 -9 21 0 47 -11 56
-26 22 -12 -28 -12 -28 -13 15 -1 44 4 49 30 29z m-2835 -19 c-3 -13 -6 -30
-6 -38 -1 -8 -6 -4 -11 9 -11 28 -5 51 12 51 7 0 9 -9 5 -22z m521 7 c-4 -8
-1 -17 4 -21 6 -4 8 -20 4 -40 -3 -21 -2 -34 4 -34 6 0 8 -7 4 -16 -4 -10 0
-20 10 -26 18 -10 23 -38 7 -38 -5 0 -10 7 -10 15 0 8 -4 15 -10 15 -11 0 -25
25 -34 62 -5 22 -3 26 9 22 11 -5 13 -2 9 10 -3 9 -14 16 -23 16 -10 0 -12 3
-5 8 6 4 13 15 17 25 3 9 9 17 13 17 3 0 4 -7 1 -15z m1353 -5 c0 -5 -5 -10
-11 -10 -5 0 -7 5 -4 10 3 6 8 10 11 10 2 0 4 -4 4 -10z m489 -34 c-7 -20 -17
-36 -21 -36 -12 0 -10 13 8 49 21 42 30 33 13 -13z m-3052 -42 c-11 -11 -34
10 -34 32 0 28 13 32 20 7 3 -11 6 -7 8 12 2 27 3 26 6 -9 3 -21 2 -40 0 -42z
m378 66 c3 -5 1 -10 -4 -10 -6 0 -11 5 -11 10 0 6 2 10 4 10 3 0 8 -4 11 -10z
m717 -50 c-3 -42 0 -60 8 -60 9 0 10 -3 1 -13 -6 -8 -8 -17 -4 -20 3 -4 1 -7
-5 -7 -18 0 -16 160 2 160 1 0 -1 -27 -2 -60z m1678 56 c0 -2 -7 -7 -16 -10
-8 -3 -12 -2 -9 4 6 10 25 14 25 6z m-2640 -17 c0 -8 5 -7 15 1 11 9 19 10 27
2 17 -17 1 -29 -31 -24 -30 4 -53 32 -26 32 8 0 15 -5 15 -11z m2505 1 c7 -12
-12 -40 -27 -40 -5 0 -4 9 2 20 6 12 7 20 1 20 -5 0 -12 -6 -14 -12 -3 -8 -6
-6 -6 5 -1 19 33 24 44 7z m508 -69 c-1 -1 -6 0 -12 4 -13 7 -15 58 -3 69 6 7
21 -63 15 -73z m-3634 53 c8 -7 -6 -15 -32 -17 -15 -1 -26 1 -27 6 -1 27 2 29
27 22 16 -4 30 -9 32 -11z m3041 -1 c5 -4 -27 -26 -42 -29 -5 -1 -11 -2 -15
-3 -4 0 2 -8 13 -17 18 -14 18 -15 -6 -8 -34 9 -34 9 -19 43 11 25 18 29 39
24 14 -3 27 -8 30 -10z m300 3 c0 -7 -9 -16 -20 -19 -23 -6 -26 3 -8 21 16 16
28 15 28 -2z m34 5 c3 -5 -1 -14 -8 -20 -12 -10 -14 -9 -11 6 2 10 4 19 4 21
2 5 10 2 15 -7z m-2198 -76 c4 -23 3 -24 -21 -13 -27 12 -32 27 -14 45 8 8 8
13 0 17 -6 4 -11 12 -11 18 0 19 41 -41 46 -67z m2100 50 c1 -14 -2 -22 -7
-19 -11 6 -12 44 -1 44 4 0 8 -11 8 -25z m454 -10 c0 -19 -4 -35 -10 -35 -5 0
-10 16 -10 35 0 19 5 35 10 35 6 0 10 -16 10 -35z m-1272 4 c12 -5 22 -13 22
-19 0 -6 -9 -6 -27 1 -19 7 -29 7 -31 0 -5 -15 -43 -13 -64 3 -26 20 -22 29
11 24 17 -2 27 0 24 5 -5 9 15 4 65 -14z m1859 -107 c5 -47 4 -52 -12 -46 -12
5 -13 9 -5 14 8 5 10 20 6 41 -3 19 -8 54 -11 79 l-4 45 10 -40 c5 -22 12 -64
16 -93z m-2987 103 c0 -8 -2 -15 -4 -15 -2 0 -6 7 -10 15 -3 8 -1 15 4 15 6 0
10 -7 10 -15z m-360 -20 c0 -14 -4 -25 -8 -25 -7 0 -8 31 -3 48 4 11 11 -3 11
-23z m1577 -22 c-3 -3 -14 0 -24 6 -17 10 -17 10 0 11 9 0 18 8 18 18 1 10 3
8 6 -6 3 -13 2 -26 0 -29z m1447 32 c3 -9 0 -15 -9 -15 -9 0 -12 6 -9 15 4 8
7 15 9 15 2 0 5 -7 9 -15z m-3774 -5 c0 -5 -5 -10 -11 -10 -5 0 -7 5 -4 10 3
6 8 10 11 10 2 0 4 -4 4 -10z m396 -27 c-10 -10 -19 5 -10 18 6 11 8 11 12 0
2 -7 1 -15 -2 -18z m1734 17 c0 -5 -4 -10 -10 -10 -5 0 -10 5 -10 10 0 6 5 10
10 10 6 0 10 -4 10 -10z m1190 1 c0 -6 -4 -13 -10 -16 -5 -3 -10 1 -10 9 0 9
5 16 10 16 6 0 10 -4 10 -9z m-3066 -26 c-4 -8 -10 -15 -15 -15 -5 0 -9 7 -9
15 0 8 7 15 15 15 9 0 12 -6 9 -15z m1796 11 c0 -2 -7 -7 -16 -10 -8 -3 -12
-2 -9 4 6 10 25 14 25 6z m-2330 -16 c0 -5 -5 -10 -11 -10 -5 0 -7 5 -4 10 3
6 8 10 11 10 2 0 4 -4 4 -10z m4278 -8 c2 -7 -2 -10 -12 -6 -9 3 -16 11 -16
16 0 13 23 5 28 -10z m-3508 -2 c0 -5 -4 -10 -10 -10 -5 0 -10 5 -10 10 0 6 5
10 10 10 6 0 10 -4 10 -10z m603 -23 c4 6 16 9 27 6 31 -8 24 -18 -14 -20 -35
-3 -54 17 -39 40 4 7 9 2 13 -13 4 -15 9 -20 13 -13z m-2039 8 c3 -8 1 -15 -3
-15 -5 0 -11 7 -15 15 -3 8 -1 15 3 15 5 0 11 -7 15 -15z m714 3 c17 -17 15
-38 -3 -38 -8 0 -15 5 -15 11 0 5 -4 7 -10 4 -5 -3 -15 -3 -22 1 -7 5 -5 11 7
21 23 16 28 16 43 1z m2702 2 c0 -5 -4 -10 -10 -10 -5 0 -10 5 -10 10 0 6 5
10 10 10 6 0 10 -4 10 -10z m445 0 c-3 -5 -12 -10 -18 -10 -7 0 -6 4 3 10 19
12 23 12 15 0z m-3215 -10 c0 -5 -4 -10 -10 -10 -5 0 -10 5 -10 10 0 6 5 10
10 10 6 0 10 -4 10 -10z m570 0 c0 -5 -5 -10 -11 -10 -5 0 -7 5 -4 10 3 6 8
10 11 10 2 0 4 -4 4 -10z m1130 0 c0 -5 -5 -10 -11 -10 -5 0 -7 5 -4 10 3 6 8
10 11 10 2 0 4 -4 4 -10z m805 0 c3 -5 1 -10 -4 -10 -6 0 -11 5 -11 10 0 6 2
10 4 10 3 0 8 -4 11 -10z m-2385 -10 c0 -5 -2 -10 -4 -10 -3 0 -8 5 -11 10 -3
6 -1 10 4 10 6 0 11 -4 11 -10z m810 0 c0 -5 -7 -10 -16 -10 -8 0 -12 5 -9 10
3 6 10 10 16 10 5 0 9 -4 9 -10z m950 -23 c0 -5 -7 -6 -16 -3 -9 3 -20 6 -25
6 -5 0 -9 7 -9 15 0 12 4 13 25 3 14 -6 25 -15 25 -21z m575 23 c3 -5 1 -10
-4 -10 -6 0 -11 5 -11 10 0 6 2 10 4 10 3 0 8 -4 11 -10z m1022 -23 c2 -17 1
-19 -7 -7 -11 17 -14 47 -3 36 4 -3 8 -17 10 -29z m898 13 c3 -5 1 -10 -4 -10
-6 0 -11 5 -11 10 0 6 2 10 4 10 3 0 8 -4 11 -10z m-597 -25 c-3 -3 -9 2 -12
12 -6 14 -5 15 5 6 7 -7 10 -15 7 -18z m-2308 -7 c0 -16 -3 -19 -11 -11 -6 6
-8 16 -5 22 11 17 16 13 16 -11z m930 8 c0 -3 -4 -8 -10 -11 -5 -3 -10 -1 -10
4 0 6 5 11 10 11 6 0 10 -2 10 -4z m-2152 -23 c-10 -2 -28 -2 -40 0 -13 2 -5
4 17 4 22 1 32 -1 23 -4z m625 0 c-7 -2 -21 -2 -30 0 -10 3 -4 5 12 5 17 0 24
-2 18 -5z m54 1 c-3 -3 -12 -4 -19 -1 -8 3 -5 6 6 6 11 1 17 -2 13 -5z m3482
-41 c-1 -17 -3 -21 -6 -10 -7 26 -63 19 -63 -9 0 -8 -4 -14 -10 -14 -5 0 -11
-12 -11 -27 -2 -26 -2 -26 -6 -4 -3 13 0 28 6 34 6 6 11 19 11 28 0 12 10 19
33 22 17 2 35 5 40 5 4 1 6 -10 6 -25z m-2570 -53 c5 0 9 -39 10 -86 1 -70 4
-89 18 -100 17 -12 16 -13 -8 -14 -22 0 -26 5 -27 28 0 15 -2 77 -5 137 -3 61
-3 93 0 73 2 -21 8 -38 12 -38z m-919 56 c0 -2 -7 -6 -15 -10 -8 -3 -15 -1
-15 4 0 6 7 10 15 10 8 0 15 -2 15 -4z m1060 -6 c0 -5 -5 -10 -11 -10 -5 0 -7
5 -4 10 3 6 8 10 11 10 2 0 4 -4 4 -10z m327 -12 c-3 -8 -6 -5 -6 6 -1 11 2
17 5 13 3 -3 4 -12 1 -19z m1241 15 c-14 -4 -15 -7 -5 -18 6 -7 17 -10 22 -7
6 3 4 -2 -4 -11 -13 -17 -15 -16 -31 8 -15 23 -18 24 -24 9 -4 -9 -9 -14 -12
-11 -15 15 7 34 38 34 18 0 25 -2 16 -4z m190 0 c-10 -2 -18 -11 -18 -19 0 -8
-5 -14 -11 -14 -6 0 -9 -7 -6 -15 5 -11 1 -12 -17 -5 -13 5 -27 6 -30 3 -3 -4
-6 1 -6 10 0 22 -16 22 -32 -1 -12 -16 -58 -28 -58 -16 0 30 78 49 109 28 20
-14 22 -13 31 10 7 18 16 26 32 25 17 -1 19 -2 6 -6z m112 -7 c0 -11 -19 -15
-25 -6 -3 5 1 10 9 10 9 0 16 -2 16 -4z m30 -11 c0 -8 -4 -15 -10 -15 -5 0
-10 7 -10 15 0 8 5 15 10 15 6 0 10 -7 10 -15z m316 -1 c-9 -8 -16 -18 -17
-22 0 -4 -2 -16 -5 -27 -2 -11 -8 -49 -12 -83 -5 -35 -14 -67 -22 -72 -7 -4
-10 -12 -6 -18 4 -6 -4 -6 -18 1 -14 7 -20 15 -15 18 6 3 11 20 11 37 1 18 4
32 7 32 12 0 29 59 24 80 -4 14 3 28 21 45 29 27 58 35 32 9z m-2609 -10 c-3
-3 -12 -4 -19 -1 -8 3 -5 6 6 6 11 1 17 -2 13 -5z m1239 -30 c-4 -14 -9 -24
-12 -21 -3 2 -2 17 2 31 3 15 9 25 11 22 3 -3 2 -17 -1 -32z m1288 21 c3 -8 1
-15 -4 -15 -6 0 -10 7 -10 15 0 8 2 15 4 15 2 0 6 -7 10 -15z m256 0 c0 -8 -4
-15 -10 -15 -5 0 -7 7 -4 15 4 8 8 15 10 15 2 0 4 -7 4 -15z m-3035 -5 c3 -5
-1 -10 -10 -10 -9 0 -13 5 -10 10 3 6 8 10 10 10 2 0 7 -4 10 -10z m865 1 c0
-5 -7 -11 -15 -15 -15 -5 -20 5 -8 17 9 10 23 9 23 -2z m-1053 -18 c-9 -9 -20
-13 -24 -9 -4 4 -1 11 7 16 25 16 35 11 17 -7z m148 7 c-3 -5 -1 -20 6 -32 6
-13 8 -20 4 -16 -4 4 -14 0 -22 -10 -13 -16 -13 -15 -4 4 6 12 6 26 0 35 -13
21 -11 29 7 29 8 0 12 -4 9 -10z m92 -12 c-3 -8 -6 -5 -6 6 -1 11 2 17 5 13 3
-3 4 -12 1 -19z m583 -10 c-1 -26 -3 -30 -10 -16 -6 9 -7 23 -4 32 9 25 14 19
14 -16z m2450 -3 c0 -19 -2 -35 -4 -35 -2 0 -6 16 -8 35 -2 19 0 35 4 35 4 0
8 -16 8 -35z m-2386 -7 c-2 -18 -7 -44 -13 -58 -8 -21 -10 -16 -10 33 -1 41 3
57 12 57 9 0 12 -11 11 -32z m36 17 c-7 -8 -17 -15 -22 -15 -6 0 -5 7 2 15 7
8 17 15 22 15 6 0 5 -7 -2 -15z m237 0 c0 -8 -4 -15 -9 -15 -10 0 -11 14 -1
23 9 10 10 9 10 -8z m198 5 c3 -5 1 -10 -4 -10 -6 0 -11 5 -11 10 0 6 2 10 4
10 3 0 8 -4 11 -10z m1604 -44 c-9 -8 -10 -7 -5 7 3 10 7 24 7 30 1 7 3 4 6
-7 3 -10 -1 -23 -8 -30z m185 28 c4 -10 1 -14 -6 -12 -15 5 -23 28 -10 28 5 0
13 -7 16 -16z m-2698 -20 c-3 -8 0 -11 10 -7 9 3 14 -1 14 -12 0 -12 -5 -15
-16 -11 -9 3 -18 6 -20 6 -2 0 -4 12 -4 26 0 15 4 23 11 19 6 -4 8 -13 5 -21z
m597 -4 c-7 -27 -13 -25 -11 4 1 14 5 23 9 20 4 -2 5 -13 2 -24z m274 18 c0
-7 3 -23 7 -35 4 -13 3 -23 -2 -23 -5 0 -12 10 -16 23 -8 31 -7 47 2 47 5 0 9
-6 9 -12z m1913 2 c0 -5 -4 -10 -9 -10 -6 0 -13 5 -16 10 -3 6 1 10 9 10 9 0
16 -4 16 -10z m-3150 -10 c0 -5 -7 -10 -15 -10 -8 0 -15 5 -15 10 0 6 7 10 15
10 8 0 15 -4 15 -10z m2098 -18 c2 -12 -1 -22 -7 -22 -6 0 -11 4 -11 9 0 5 -3
17 -7 27 -4 12 -2 15 8 12 8 -2 15 -14 17 -26z m422 18 c0 -5 -6 -9 -12 -7
-12 2 -15 -14 -21 -117 -2 -24 3 -31 23 -37 l25 -7 -25 -1 c-15 -1 -31 4 -37
10 -15 15 -4 130 15 152 17 19 32 22 32 7z m-3666 -16 c3 -8 10 -12 16 -9 5 3
10 1 10 -4 0 -16 -29 -13 -46 3 -18 18 -18 26 0 26 8 0 17 -7 20 -16z m1037
-1 c25 -30 4 -83 -34 -83 -18 0 -18 2 6 20 29 23 26 60 -4 60 -11 0 -19 5 -19
10 0 16 36 11 51 -7z m1717 -8 c0 -14 -5 -25 -10 -25 -5 0 -7 4 -4 9 4 5 0 12
-6 14 -10 4 -9 8 2 16 8 6 16 11 16 11 1 0 2 -11 2 -25z m-4058 -35 c-9 -6
-25 -80 -22 -100 1 -8 4 -35 8 -60 3 -24 10 -52 15 -62 7 -13 6 -18 -3 -18 -7
0 -24 -3 -38 -7 -23 -6 -24 -5 -11 11 13 15 13 19 0 27 -11 7 -11 9 4 9 9 0
17 5 17 10 0 6 -4 10 -10 10 -14 0 -13 16 12 132 16 76 24 96 28 78 4 -14 3
-27 0 -30z m2050 40 c0 -5 -5 -10 -11 -10 -5 0 -7 5 -4 10 3 6 8 10 11 10 2 0
4 -4 4 -10z m209 -27 c-12 -14 -10 -15 21 -8 32 7 33 6 21 -9 -18 -21 -55 -17
-59 7 -4 21 20 56 26 38 2 -7 -2 -19 -9 -28z m942 4 c-16 -16 -26 0 -10 19 9
11 15 12 17 4 2 -6 -1 -17 -7 -23z m1556 25 c13 -8 15 -122 3 -143 -7 -11 -13
-10 -29 5 -16 15 -18 22 -10 32 6 8 9 20 6 29 -4 8 -2 17 3 20 5 3 7 19 3 35
-5 30 1 36 24 22z m253 -2 c0 -5 -4 -10 -10 -10 -5 0 -10 5 -10 10 0 6 5 10
10 10 6 0 10 -4 10 -10z m-3801 -16 c2 -2 -10 -4 -27 -4 -18 0 -32 5 -32 10 0
9 47 4 59 -6z m786 6 c3 -5 -1 -10 -10 -10 -9 0 -13 5 -10 10 3 6 8 10 10 10
2 0 7 -4 10 -10z m721 -26 c-6 -19 -12 -28 -14 -20 -3 13 14 56 22 56 2 0 -2
-16 -8 -36z m2754 26 c0 -5 -2 -10 -4 -10 -3 0 -8 5 -11 10 -3 6 -1 10 4 10 6
0 11 -4 11 -10z m64 -16 c5 -13 0 -16 -21 -13 -5 1 -7 6 -5 11 2 6 -4 8 -12 5
-10 -4 -13 -1 -10 7 6 17 41 9 48 -10z m-3969 6 c3 -5 -1 -10 -10 -10 -9 0
-13 5 -10 10 3 6 8 10 10 10 2 0 7 -4 10 -10z m894 1 c9 -6 10 -11 2 -15 -13
-8 -31 1 -31 15 0 11 11 11 29 0z m1778 -13 c-3 -8 -6 -5 -6 6 -1 11 2 17 5
13 3 -3 4 -12 1 -19z m290 -53 c-6 -34 -15 -55 -23 -55 -9 0 -12 9 -9 28 2 15
7 44 10 65 5 30 9 36 19 28 10 -8 10 -23 3 -66z m1115 9 c2 -32 -1 -51 -8 -51
-6 0 -10 19 -10 45 1 29 -4 46 -12 50 -11 4 -11 6 0 13 19 12 26 0 30 -57z
m-3462 52 c0 -3 -4 -8 -10 -11 -5 -3 -10 -1 -10 4 0 6 5 11 10 11 6 0 10 -2
10 -4z m-1005 -35 c-6 -5 -25 10 -25 20 0 5 6 4 14 -3 8 -7 12 -15 11 -17z
m565 14 c0 -8 -7 -15 -15 -15 -26 0 -18 20 13 29 1 1 2 -6 2 -14z m1786 -27
c-5 -40 -5 -41 9 -24 16 22 31 16 22 -9 -4 -8 -17 -15 -31 -15 -25 0 -28 16
-12 68 12 36 19 25 12 -20z m684 11 c0 -17 -4 -28 -10 -24 -5 3 -10 17 -10 31
0 13 5 24 10 24 6 0 10 -14 10 -31z m1050 -16 c0 -13 -4 -23 -8 -23 -4 0 -8
16 -8 35 0 21 3 30 8 22 4 -6 8 -22 8 -34z m-2620 27 c0 -5 -4 -10 -10 -10 -5
0 -10 5 -10 10 0 6 5 10 10 10 6 0 10 -4 10 -10z m217 -20 c1 -17 -2 -30 -7
-30 -11 0 -14 43 -3 53 3 4 7 7 7 7 1 0 2 -14 3 -30z m320 8 c-3 -8 -6 -5 -6
6 -1 11 2 17 5 13 3 -3 4 -12 1 -19z m883 -8 c0 -16 -4 -30 -9 -30 -13 0 -24
34 -12 38 6 2 9 8 5 13 -3 5 0 9 5 9 6 0 11 -13 11 -30z m-2644 -17 c-11 -11
-17 4 -9 23 7 18 8 18 11 1 2 -10 1 -21 -2 -24z m514 27 c0 -5 -5 -10 -11 -10
-5 0 -7 5 -4 10 3 6 8 10 11 10 2 0 4 -4 4 -10z m137 4 c-3 -3 -12 -4 -19 -1
-8 3 -5 6 6 6 11 1 17 -2 13 -5z m1626 -14 c-3 -11 -7 -20 -9 -20 -2 0 -4 9
-4 20 0 11 4 20 9 20 5 0 7 -9 4 -20z m199 -2 c-7 -7 -12 -8 -12 -2 0 14 12
26 19 19 2 -3 -1 -11 -7 -17z m-2313 3 c2 -1 -4 -10 -14 -21 -17 -19 -17 -20
0 -20 14 0 16 -3 8 -11 -17 -17 -53 7 -53 37 0 24 5 26 59 15z m3647 -25 c-1
-22 -5 -32 -13 -29 -16 6 -17 35 -1 51 7 7 13 12 13 12 1 0 1 -15 1 -34z m290
19 c-3 -9 1 -18 9 -21 8 -4 12 -10 9 -16 -9 -13 -34 11 -34 33 0 11 5 19 11
19 6 0 8 -7 5 -15z m-3339 -1 c-3 -3 -12 -4 -19 -1 -8 3 -5 6 6 6 11 1 17 -2
13 -5z m498 -32 c-2 -3 -11 0 -18 6 -8 7 -18 8 -23 4 -4 -4 -2 1 6 11 13 18
15 18 27 1 7 -10 11 -20 8 -22z m2183 21 c-2 -9 -8 -18 -15 -20 -7 -3 -9 3 -6
16 6 25 26 28 21 4z m-3142 -29 c8 3 14 1 14 -4 0 -6 -12 -10 -26 -10 -20 0
-25 4 -20 16 3 9 7 21 7 27 1 7 4 2 6 -11 3 -15 10 -22 19 -18z m284 20 c0 -8
-5 -12 -10 -9 -6 4 -8 11 -5 16 9 14 15 11 15 -7z m97 10 c-3 -3 -12 -4 -19
-1 -8 3 -5 6 6 6 11 1 17 -2 13 -5z m378 -14 c10 -11 16 -20 13 -20 -3 0 -13
9 -23 20 -10 11 -16 20 -13 20 3 0 13 -9 23 -20z m958 -7 c18 -23 18 -23 -8
-23 -14 0 -24 4 -20 9 3 5 1 12 -5 16 -14 9 -12 22 3 22 7 0 21 -11 30 -24z
m-1558 7 c3 -5 2 -10 -4 -10 -5 0 -13 5 -16 10 -3 6 -2 10 4 10 5 0 13 -4 16
-10z m3408 -5 c-3 -9 -8 -14 -10 -11 -3 3 -2 9 2 15 9 16 15 13 8 -4z m-4813
-10 c0 -8 -4 -15 -10 -15 -5 0 -7 7 -4 15 4 8 8 15 10 15 2 0 4 -7 4 -15z
m4104 3 c-3 -4 -12 -8 -20 -8 -8 0 -14 4 -14 8 0 4 9 8 19 8 11 0 17 -4 15 -8z
m-2814 -8 c0 -5 -4 -10 -10 -10 -5 0 -10 5 -10 10 0 6 5 10 10 10 6 0 10 -4
10 -10z m970 -6 c0 -2 -12 -4 -27 -4 -21 0 -24 3 -14 9 13 8 41 5 41 -5z
m1105 6 c4 -6 -15 -9 -52 -8 l-58 1 50 7 c28 4 51 8 52 8 1 1 5 -2 8 -8z m264
-6 c2 -2 -12 -4 -33 -4 -22 0 -35 4 -31 10 5 9 52 4 64 -6z m277 6 c8 0 14 -4
14 -8 0 -7 -102 -9 -125 -2 -15 4 68 18 83 14 8 -2 20 -4 28 -4z m-2369 -6
c-3 -3 -12 -4 -19 -1 -8 3 -5 6 6 6 11 1 17 -2 13 -5z m150 0 c-3 -3 -12 -4
-19 -1 -8 3 -5 6 6 6 11 1 17 -2 13 -5z m496 -1 c-7 -2 -19 -2 -25 0 -7 3 -2
5 12 5 14 0 19 -2 13 -5z m940 0 c-7 -2 -19 -2 -25 0 -7 3 -2 5 12 5 14 0 19
-2 13 -5z m74 1 c-3 -3 -12 -4 -19 -1 -8 3 -5 6 6 6 11 1 17 -2 13 -5z m50 0
c-3 -3 -12 -4 -19 -1 -8 3 -5 6 6 6 11 1 17 -2 13 -5z m196 -1 c-7 -2 -19 -2
-25 0 -7 3 -2 5 12 5 14 0 19 -2 13 -5z m224 1 c-3 -3 -12 -4 -19 -1 -8 3 -5
6 6 6 11 1 17 -2 13 -5z m38 -4 c-3 -5 -10 -10 -16 -10 -5 0 -9 5 -9 10 0 6 7
10 16 10 8 0 12 -4 9 -10z m1255 0 c0 -5 -5 -10 -11 -10 -5 0 -7 5 -4 10 3 6
8 10 11 10 2 0 4 -4 4 -10z m-803 -6 c-3 -3 -12 -4 -19 -1 -8 3 -5 6 6 6 11 1
17 -2 13 -5z m93 -4 c0 -5 -5 -10 -11 -10 -5 0 -7 5 -4 10 3 6 8 10 11 10 2 0
4 -4 4 -10z m110 3 c0 -5 -11 -8 -24 -8 -13 0 -22 3 -19 8 2 4 13 7 24 7 10 0
19 -3 19 -7z m207 -9 c-3 -3 -12 -4 -19 -1 -8 3 -5 6 6 6 11 1 17 -2 13 -5z
m147 -9 c-4 -8 -11 -15 -16 -15 -6 0 -5 6 2 15 7 8 14 15 16 15 2 0 1 -7 -2
-15z m129 8 c-7 -2 -19 -2 -25 0 -7 3 -2 5 12 5 14 0 19 -2 13 -5z m-5296 -25
c-3 -8 -6 -5 -6 6 -1 11 2 17 5 13 3 -3 4 -12 1 -19z m5576 15 c-7 -2 -19 -2
-25 0 -7 3 -2 5 12 5 14 0 19 -2 13 -5z m-2463 -33 c0 -5 -10 -10 -22 -10 -19
0 -20 2 -8 10 19 13 30 13 30 0z m684 -39 c3 -5 -3 -11 -13 -14 -12 -3 -22 1
-25 9 -6 16 29 20 38 5z m486 -1 c0 -5 -2 -10 -4 -10 -3 0 -8 5 -11 10 -3 6
-1 10 4 10 6 0 11 -4 11 -10z m463 -7 c-24 -9 -13 -25 12 -19 14 4 25 2 25 -3
0 -5 8 -11 18 -13 9 -2 -21 -5 -68 -5 -47 -1 -78 1 -70 4 8 3 23 12 33 21 14
12 17 12 17 1 0 -8 7 -4 16 9 9 13 19 20 23 16 3 -4 0 -9 -6 -11z m-1313 -19
c0 -8 -4 -12 -10 -9 -5 3 -10 10 -10 16 0 5 5 9 10 9 6 0 10 -7 10 -16z m1400
0 c0 -8 -4 -12 -10 -9 -5 3 -10 10 -10 16 0 5 5 9 10 9 6 0 10 -7 10 -16z
m410 7 c0 -5 -7 -11 -15 -15 -15 -5 -20 5 -8 17 9 10 23 9 23 -2z m-3385 -11
c3 -5 1 -10 -4 -10 -6 0 -11 5 -11 10 0 6 2 10 4 10 3 0 8 -4 11 -10z m3300 0
c3 -5 -3 -10 -14 -10 -12 0 -21 5 -21 10 0 6 6 10 14 10 8 0 18 -4 21 -10z
m-2829 -26 c-5 -19 -4 -24 6 -18 7 4 10 4 6 -1 -6 -7 -88 -14 -88 -8 0 2 16 9
35 17 19 8 35 20 35 25 0 6 3 11 6 11 3 0 3 -12 0 -26z m2684 22 c0 -3 -4 -8
-10 -11 -5 -3 -10 -1 -10 4 0 6 5 11 10 11 6 0 10 -2 10 -4z m-1820 -22 c0 -2
-7 -4 -15 -4 -8 0 -15 4 -15 10 0 5 7 7 15 4 8 -4 15 -8 15 -10z m177 10 c-3
-3 -12 -4 -19 -1 -8 3 -5 6 6 6 11 1 17 -2 13 -5z m-482 -14 c3 -5 1 -10 -4
-10 -6 0 -11 5 -11 10 0 6 2 10 4 10 3 0 8 -4 11 -10z m-658 -6 c-3 -3 -12 -4
-19 -1 -8 3 -5 6 6 6 11 1 17 -2 13 -5z m203 -3 c0 -12 -35 -20 -51 -11 -8 6
-3 10 17 13 16 2 30 5 32 6 1 0 2 -3 2 -8z m130 -1 c0 -5 -22 -8 -49 -7 -27 1
-47 5 -44 10 6 11 93 9 93 -3z m530 6 c0 -3 -4 -8 -10 -11 -5 -3 -10 -1 -10 4
0 6 5 11 10 11 6 0 10 -2 10 -4z m-3181 -60 c-9 -8 -10 -7 -5 7 3 10 7 26 7
35 1 9 4 6 6 -7 3 -13 -1 -28 -8 -35z m-84 -551 l50 -14 -59 2 c-37 1 -61 7
-64 15 -5 15 11 15 73 -3z m-725 -515 c12 -16 19 -30 16 -30 -2 0 -14 14 -26
30 -12 17 -19 30 -16 30 2 0 14 -13 26 -30z m180 20 c0 -11 -43 -12 -115 0
-47 7 -45 7 33 9 49 0 82 -3 82 -9z m6367 -117 c-8 -7 -248 -6 -255 2 -3 3 55
5 128 5 73 0 130 -3 127 -7z m91 0 c-10 -2 -26 -2 -35 0 -10 3 -2 5 17 5 19 0
27 -2 18 -5z m115 0 c-18 -2 -48 -2 -65 0 -18 2 -4 4 32 4 36 0 50 -2 33 -4z
m144 1 c-3 -3 -12 -4 -19 -1 -8 3 -5 6 6 6 11 1 17 -2 13 -5z m56 -1 c-7 -2
-19 -2 -25 0 -7 3 -2 5 12 5 14 0 19 -2 13 -5z m54 1 c-3 -3 -12 -4 -19 -1 -8
3 -5 6 6 6 11 1 17 -2 13 -5z m-6942 -334 c1 -38 -1 -57 -6 -49 -10 15 -13
126 -3 117 3 -4 7 -34 9 -68z m31 -46 c-4 -15 -3 -23 3 -20 5 4 17 -2 27 -11
17 -17 17 -18 0 -21 -10 -2 -23 1 -29 7 -13 13 -17 71 -4 71 5 0 6 -12 3 -26z"/>
<path d="M9610 10505 c-354 -67 -629 -283 -771 -607 -54 -123 -70 -198 -76
-363 -4 -129 -2 -163 16 -244 41 -180 130 -346 258 -481 105 -111 165 -157
278 -214 405 -202 884 -133 1202 175 148 142 256 340 294 534 21 112 17 333
-9 438 -91 367 -366 646 -737 747 -104 29 -343 36 -455 15z m450 -180 c314
-102 531 -338 594 -647 89 -433 -162 -862 -584 -999 -125 -41 -308 -51 -440
-24 -363 73 -629 339 -700 696 -54 276 61 614 268 786 133 110 220 156 374
198 85 23 107 25 248 22 136 -4 165 -7 240 -32z"/>
<path d="M9478 10042 c-10 -2 -18 -11 -18 -20 0 -13 2 -14 8 -4 5 7 16 10 25
6 9 -3 15 -10 12 -14 -3 -5 -1 -12 5 -15 8 -5 7 -11 -1 -21 -9 -11 -9 -14 0
-14 7 0 22 -10 34 -23 12 -13 15 -15 7 -4 -14 17 -13 18 15 11 39 -9 45 -13
45 -27 0 -8 -3 -8 -9 1 -7 11 -9 11 -14 -1 -4 -12 0 -14 16 -11 17 3 23 -1 24
-17 1 -15 -2 -19 -18 -14 -24 8 -24 2 3 -39 25 -38 78 -75 78 -55 0 7 2 10 5
7 4 -3 3 -17 0 -31 -5 -20 -12 -24 -34 -23 -15 1 -34 -4 -41 -12 -11 -12 -10
-13 9 -7 23 7 28 -4 9 -23 -7 -7 -8 -12 -3 -12 5 0 0 -7 -11 -16 -16 -13 -16
-15 -2 -10 21 6 34 -10 13 -17 -8 -4 -34 -4 -58 -1 -29 4 -47 2 -52 -6 -5 -9
-1 -10 15 -5 14 5 20 3 16 -3 -3 -6 -32 -8 -69 -6 l-62 5 34 -15 c18 -9 37
-14 41 -11 5 3 11 1 15 -5 5 -9 -40 -16 -68 -11 -5 1 -6 -3 -2 -9 3 -5 21 -10
40 -10 26 0 32 -3 29 -17 -4 -17 -10 -68 -13 -104 -1 -11 -17 -21 -47 -28 -56
-14 -100 -41 -84 -51 8 -5 6 -12 -8 -22 -33 -23 -13 -42 24 -23 16 8 37 15 48
15 15 0 16 3 7 14 -9 10 -8 15 4 20 10 3 15 -1 15 -12 0 -15 2 -15 10 -2 7 10
12 11 18 4 4 -6 14 -13 23 -16 13 -5 16 -2 12 13 -3 10 0 19 6 19 13 0 5 -83
-9 -88 -5 -2 -25 -23 -44 -47 l-36 -44 25 -27 c22 -23 27 -25 42 -13 10 8 24
22 32 32 12 17 17 15 62 -36 58 -66 118 -97 180 -96 l44 1 -53 9 c-61 10 -92
24 -92 42 0 8 3 8 9 -2 5 -8 17 -11 32 -6 19 5 21 4 9 -4 -11 -8 -5 -11 28
-11 24 0 41 4 38 9 -3 5 5 8 19 7 25 -1 36 -16 13 -16 -9 0 -9 -3 0 -12 8 -8
22 -7 54 6 68 27 108 92 99 164 -1 6 5 12 12 12 8 0 17 7 21 15 3 8 1 15 -5
15 -5 0 1 18 13 40 l23 41 -25 19 c-20 16 -22 20 -7 20 9 0 17 -5 17 -11 0 -5
5 -7 10 -4 6 3 10 -1 10 -9 0 -8 5 -18 12 -22 7 -4 8 -3 4 4 -5 8 0 12 13 12
12 0 21 -4 21 -10 0 -16 17 -11 24 6 8 21 2 27 -27 29 -12 1 -21 6 -19 11 2 5
12 8 23 7 10 -2 19 1 19 6 0 15 -32 22 -46 10 -16 -13 -25 17 -21 71 1 27 -2
35 -17 38 -10 2 -16 0 -12 -6 3 -5 -1 -12 -9 -16 -19 -7 -15 15 5 30 21 16 78
25 85 14 6 -10 81 -7 92 4 4 3 -1 6 -10 6 -10 0 -17 5 -17 10 0 6 5 10 11 10
5 0 7 4 4 10 -3 5 2 9 12 8 10 0 28 0 41 0 21 2 22 4 9 17 -10 10 -33 14 -76
12 -33 -1 -61 -5 -61 -9 0 -3 -9 -4 -19 -1 -13 3 -21 -2 -26 -16 -3 -12 -13
-21 -20 -21 -9 0 -12 6 -9 15 4 8 10 12 15 9 5 -3 9 0 9 5 0 17 -27 13 -34 -4
-3 -8 -10 -15 -15 -15 -6 0 -8 7 -4 16 4 10 -1 17 -16 21 -14 4 -21 13 -21 30
0 13 -4 21 -10 18 -5 -3 -10 2 -11 12 0 10 -3 13 -6 6 -10 -25 -23 -13 -16 15
3 15 6 36 5 47 -1 14 1 16 7 6 6 -9 21 12 51 70 23 46 49 92 58 102 17 19 48
23 54 5 2 -6 17 5 32 25 25 33 26 38 13 52 -34 34 -137 -1 -137 -47 0 -10 -6
-18 -14 -18 -16 0 -29 -27 -19 -42 3 -7 1 -8 -5 -4 -6 4 -21 -10 -34 -34 -13
-22 -28 -42 -35 -44 -6 -3 -28 6 -49 20 -34 24 -39 24 -78 12 -22 -8 -40 -19
-38 -26 1 -7 -2 -12 -8 -12 -5 0 -10 5 -10 11 0 5 -5 7 -11 3 -8 -4 -2 -12 15
-21 30 -16 31 -21 11 -47 -15 -19 -15 -19 -15 2 0 12 -9 27 -19 34 -10 6 -17
17 -14 24 3 7 -21 45 -54 85 -32 39 -57 74 -56 77 2 11 -81 48 -99 44z m592
-42 c-15 -10 -8 -14 22 -11 9 1 19 -2 22 -8 3 -5 -10 -9 -29 -9 -28 0 -35 4
-35 19 0 11 7 19 18 19 14 0 15 -2 2 -10z m62 -2 c-9 -9 -15 -9 -24 0 -9 9 -7
12 12 12 19 0 21 -3 12 -12z m-109 -68 c-3 -12 -8 -19 -11 -16 -5 6 5 36 12
36 2 0 2 -9 -1 -20z m-41 -62 c-8 -8 -9 -4 -5 13 4 13 8 18 11 10 2 -7 -1 -18
-6 -23z m-155 -14 c-3 -3 -12 -4 -19 -1 -8 3 -5 6 6 6 11 1 17 -2 13 -5z m34
-25 c11 -5 17 -14 14 -20 -4 -5 -1 -9 6 -9 8 0 8 -4 -1 -15 -14 -17 -36 -20
-45 -5 -3 6 1 7 9 4 11 -4 16 0 16 10 0 20 -32 35 -38 18 -2 -7 -8 -12 -13
-12 -5 0 -4 9 3 20 15 23 22 24 49 9z m-100 -86 c-12 -20 -14 -14 -5 12 4 9 9
14 11 11 3 -2 0 -13 -6 -23z m51 5 c-7 -7 -12 -8 -12 -2 0 14 12 26 19 19 2
-3 -1 -11 -7 -17z m-82 -13 c-7 -9 -15 -13 -19 -10 -3 3 1 10 9 15 21 14 24
12 10 -5z m144 -10 c-4 -8 -8 -15 -10 -15 -2 0 -4 7 -4 15 0 8 4 15 10 15 5 0
7 -7 4 -15z m-113 -32 c-8 -15 -10 -15 -11 -2 0 17 10 32 18 25 2 -3 -1 -13
-7 -23z m-84 2 c0 -17 -24 -28 -32 -15 -4 7 13 23 31 30 0 0 1 -7 1 -15z m25
-7 c-7 -7 -12 -8 -12 -2 0 14 12 26 19 19 2 -3 -1 -11 -7 -17z m138 12 c0 -5
-2 -10 -4 -10 -3 0 -8 5 -11 10 -3 6 -1 10 4 10 6 0 11 -4 11 -10z m-240 -90
c12 -8 9 -10 -13 -10 -16 0 -26 4 -22 10 8 12 16 12 35 0z m554 -26 c5 -12 2
-15 -10 -10 -8 3 -18 6 -20 6 -3 0 -2 5 1 10 9 15 22 12 29 -6z m-47 0 c-3 -3
-12 -4 -19 -1 -8 3 -5 6 6 6 11 1 17 -2 13 -5z m-87 -14 c0 -5 -4 -10 -10 -10
-5 0 -10 5 -10 10 0 6 5 10 10 10 6 0 10 -4 10 -10z m-476 -65 c-4 -8 -8 -15
-10 -15 -2 0 -4 7 -4 15 0 8 4 15 10 15 5 0 7 -7 4 -15z m113 9 c-3 -3 -12 -4
-19 -1 -8 3 -5 6 6 6 11 1 17 -2 13 -5z m46 -14 c-20 -23 -33 -26 -33 -6 0 13
13 20 42 25 4 0 0 -8 -9 -19z m267 10 c0 -5 -4 -10 -10 -10 -5 0 -10 5 -10 10
0 6 5 10 10 10 6 0 10 -4 10 -10z m-365 -10 c3 -5 1 -10 -4 -10 -6 0 -11 5
-11 10 0 6 2 10 4 10 3 0 8 -4 11 -10z m65 -40 c0 -5 8 -11 18 -13 13 -4 14
-5 1 -6 -8 0 -26 11 -40 25 -24 26 -24 26 -1 15 12 -6 22 -16 22 -21z m350
-16 c0 -2 -7 -4 -15 -4 -8 0 -15 4 -15 10 0 5 7 7 15 4 8 -4 15 -8 15 -10z
m-480 -4 c0 -5 -4 -10 -10 -10 -5 0 -10 5 -10 10 0 6 5 10 10 10 6 0 10 -4 10
-10z m400 -40 c0 -5 -4 -10 -10 -10 -5 0 -10 5 -10 10 0 6 5 10 10 10 6 0 10
-4 10 -10z m-445 -10 c-3 -5 -18 -10 -33 -10 -35 0 -57 -14 -47 -30 6 -9 3 -9
-14 0 -24 13 -19 30 9 30 10 0 22 5 25 10 3 6 20 10 36 10 18 0 28 -4 24 -10z
m345 0 c0 -5 -2 -10 -4 -10 -3 0 -8 5 -11 10 -3 6 -1 10 4 10 6 0 11 -4 11
-10z m165 -20 c3 -6 -1 -7 -9 -4 -18 7 -21 14 -7 14 6 0 13 -4 16 -10z m-15
-106 c0 -2 -7 -4 -15 -4 -8 0 -15 4 -15 10 0 5 7 7 15 4 8 -4 15 -8 15 -10z
m-477 -9 c-3 -9 -8 -14 -10 -11 -3 3 -2 9 2 15 9 16 15 13 8 -4z m-13 -60 c0
-12 -19 -12 -23 0 -4 9 -1 12 9 8 7 -3 14 -7 14 -8z m455 5 c-3 -5 -1 -10 4
-10 6 0 11 -7 11 -15 0 -8 -4 -15 -10 -15 -5 0 -10 7 -10 16 0 11 -6 14 -17
10 -15 -5 -15 -4 1 9 23 17 30 19 21 5z m-282 -15 c4 -8 3 -16 -1 -19 -4 -3
-9 4 -9 15 -2 23 3 25 10 4z m-53 -20 c7 -8 8 -15 2 -15 -5 0 -15 7 -22 15 -7
8 -8 15 -2 15 5 0 15 -7 22 -15z m55 -35 c3 -5 1 -10 -4 -10 -6 0 -11 5 -11
10 0 6 2 10 4 10 3 0 8 -4 11 -10z"/>
<path d="M9475 9990 c3 -5 8 -10 11 -10 2 0 4 5 4 10 0 6 -5 10 -11 10 -5 0
-7 -4 -4 -10z"/>
<path d="M9960 9744 c0 -6 7 -17 15 -24 8 -7 15 -19 15 -26 0 -8 5 -14 10 -14
7 0 7 6 1 18 -17 31 -40 57 -41 46z"/>
<path d="M9310 9623 c-15 -8 -41 -12 -63 -9 -23 2 -35 0 -31 -6 4 -6 1 -14 -6
-18 -8 -5 -7 -9 4 -13 10 -4 16 -1 16 8 0 19 8 19 26 0 17 -17 80 -20 89 -5 3
6 1 10 -6 10 -26 0 1 12 38 17 21 3 40 7 42 9 20 19 -77 25 -109 7z"/>
<path d="M10292 9623 c10 -2 15 -10 11 -19 -3 -7 -9 -11 -14 -8 -13 8 -69 -6
-69 -17 0 -14 64 -11 85 5 22 16 14 47 -12 45 -16 -1 -16 -2 -1 -6z"/>
<path d="M9390 9570 c0 -5 4 -10 9 -10 6 0 13 5 16 10 3 6 -1 10 -9 10 -9 0
-16 -4 -16 -10z"/>
<path d="M10156 9395 c-11 -8 -16 -15 -10 -15 5 0 2 -5 -6 -11 -12 -8 -9 -9
13 -5 26 6 33 -1 28 -28 -1 -5 5 -3 14 4 14 12 14 15 -1 38 -9 14 -11 21 -3
17 8 -5 10 -4 5 3 -9 15 -17 15 -40 -3z"/>
<path d="M10215 9380 c3 -5 12 -10 19 -10 20 0 40 -27 26 -35 -5 -3 -10 -1
-10 4 0 6 -7 11 -15 11 -12 0 -12 -3 3 -18 10 -11 21 -15 27 -10 13 12 58 10
50 -2 -4 -6 -12 -7 -18 -4 -7 4 -9 3 -4 -1 4 -5 24 -9 45 -11 20 -1 27 0 14 3
-15 3 -22 10 -18 19 3 8 -1 14 -9 14 -8 0 -15 3 -15 8 0 8 -73 42 -91 42 -5 0
-7 -4 -4 -10z"/>
<path d="M9300 9352 c0 -4 14 -9 32 -10 18 -2 29 1 25 5 -11 10 -57 15 -57 5z"/>
<path d="M10135 9340 c3 -5 11 -10 16 -10 6 0 7 5 4 10 -3 6 -11 10 -16 10 -6
0 -7 -4 -4 -10z"/>
<path d="M9268 9333 c7 -3 16 -2 19 1 4 3 -2 6 -13 5 -11 0 -14 -3 -6 -6z"/>
<path d="M9257 9308 c-7 -4 -25 -8 -40 -8 -41 0 -33 -34 8 -37 17 -1 23 0 15
3 -8 3 -22 8 -30 11 -8 3 4 10 30 14 25 5 48 5 53 0 12 -12 47 -1 47 15 0 15
-61 16 -83 2z"/>
<path d="M10022 9255 c-16 -34 -15 -40 3 -25 8 7 12 17 8 23 -3 6 -1 7 5 3 8
-5 9 -13 3 -24 -7 -13 -2 -29 17 -59 26 -41 50 -58 38 -28 -4 11 1 15 19 15
15 0 25 -6 25 -15 0 -9 -6 -12 -15 -9 -9 4 -15 1 -15 -7 1 -19 25 -50 33 -42
4 3 7 -1 7 -11 0 -10 -5 -14 -11 -10 -7 4 -4 -7 7 -24 10 -18 21 -27 25 -21 3
6 9 10 13 9 4 -1 12 1 19 3 9 4 9 7 0 18 -11 11 -15 10 -26 -5 -12 -17 -14
-17 -20 -2 -4 11 -1 16 9 16 10 0 14 6 11 14 -3 8 -2 16 3 18 6 2 6 9 0 17 -7
12 -11 13 -24 1 -22 -18 -32 -5 -12 15 20 20 20 16 -8 67 -20 38 -76 88 -96
88 -4 0 -12 -11 -18 -25z m98 -70 c0 -8 -4 -15 -10 -15 -5 0 -10 7 -10 15 0 8
5 15 10 15 6 0 10 -7 10 -15z m-30 -16 c0 -6 -4 -7 -10 -4 -5 3 -10 11 -10 16
0 6 5 7 10 4 6 -3 10 -11 10 -16z"/>
<path d="M9430 9162 c0 -6 7 -17 15 -26 9 -8 12 -22 8 -33 -5 -15 -3 -16 7 -6
10 10 11 20 4 40 -9 26 -34 44 -34 25z"/>
<path d="M9406 9135 c-8 -22 3 -45 20 -38 16 6 19 33 3 33 -5 0 -7 5 -4 10 3
6 2 10 -3 10 -6 0 -12 -7 -16 -15z"/>
<path d="M9383 9096 c4 -10 -1 -21 -13 -28 -11 -7 -20 -20 -20 -29 0 -27 53
-41 63 -16 3 7 -3 13 -13 13 -10 0 -16 -4 -14 -8 3 -4 1 -8 -4 -8 -13 0 -23
28 -13 34 4 3 22 3 39 1 40 -5 40 5 0 35 -24 18 -30 19 -25 6z"/>
<path d="M10226 9010 c3 -14 11 -32 16 -40 6 -10 7 -7 2 10 -3 14 -11 32 -16
40 -6 10 -7 7 -2 -10z"/>
<path d="M9320 8986 c0 -2 7 -6 15 -10 8 -3 15 -1 15 4 0 6 -7 10 -15 10 -8 0
-15 -2 -15 -4z"/>
<path d="M9360 8978 c0 -4 7 -8 15 -8 8 0 15 4 15 8 0 5 -7 9 -15 9 -8 0 -15
-4 -15 -9z"/>
<path d="M10190 8980 c0 -5 5 -10 11 -10 5 0 7 5 4 10 -3 6 -8 10 -11 10 -2 0
-4 -4 -4 -10z"/>
<path d="M6162 10338 c-7 -7 -12 -26 -11 -42 l1 -31 9 33 c6 21 15 32 23 29 7
-3 13 1 13 9 0 17 -19 18 -35 2z"/>
<path d="M6550 10346 c0 -2 7 -6 15 -10 8 -3 15 -1 15 4 0 6 -7 10 -15 10 -8
0 -15 -2 -15 -4z"/>
<path d="M6611 10224 c0 -11 3 -14 6 -6 3 7 2 16 -1 19 -3 4 -6 -2 -5 -13z"/>
<path d="M6129 10202 c-3 -20 -2 -29 4 -23 5 5 7 19 5 32 -3 20 -5 19 -9 -9z"/>
<path d="M7861 10175 c-19 -22 -28 -41 -24 -52 5 -14 8 -13 14 5 5 12 13 22
19 22 6 0 8 5 5 10 -3 6 -1 10 5 10 6 0 8 5 5 10 -3 6 3 10 15 10 12 0 18 5
15 10 -10 17 -22 12 -54 -25z"/>
<path d="M8109 10198 c7 -9 9 -23 5 -29 -4 -7 -3 -9 3 -6 5 3 22 -5 38 -19 27
-23 35 -28 35 -21 0 2 -21 23 -47 47 -26 25 -41 37 -34 28z"/>
<path d="M6765 10070 c3 -5 13 -10 21 -10 8 0 13 -4 10 -9 -5 -8 54 -23 62
-16 4 4 -82 45 -93 45 -3 0 -3 -4 0 -10z"/>
<path d="M5958 10063 c7 -3 16 -2 19 1 4 3 -2 6 -13 5 -11 0 -14 -3 -6 -6z"/>
<path d="M5315 9985 c-36 -32 -37 -34 -9 -18 18 9 37 25 43 35 15 25 12 23
-34 -17z"/>
<path d="M7630 9944 c-53 -53 -67 -72 -47 -63 15 7 27 16 27 21 0 5 5 6 10 3
6 -3 10 3 10 15 0 12 4 19 9 15 5 -3 16 4 24 15 7 11 17 17 21 13 4 -4 4 1 0
12 -6 14 -4 17 7 13 10 -4 15 1 15 13 0 11 -1 19 -1 19 0 0 -34 -34 -75 -76z"/>
<path d="M5725 9970 c-3 -6 1 -7 9 -4 18 7 21 14 7 14 -6 0 -13 -4 -16 -10z"/>
<path d="M5535 9940 c3 -5 16 -15 28 -21 22 -12 22 -12 3 10 -19 21 -43 30
-31 11z"/>
<path d="M5675 9940 c3 -5 8 -10 11 -10 2 0 4 5 4 10 0 6 -5 10 -11 10 -5 0
-7 -4 -4 -10z"/>
<path d="M5239 9913 l-24 -28 28 24 c15 14 27 26 27 28 0 8 -8 1 -31 -24z"/>
<path d="M7056 9921 c-3 -5 6 -11 19 -14 29 -5 43 8 19 17 -22 8 -32 8 -38 -3z"/>
<path d="M7150 9913 c-24 -12 -24 -13 -3 -13 12 0 25 5 28 11 11 16 2 17 -25
2z"/>
<path d="M8165 9919 c-4 -6 -13 -8 -21 -5 -8 3 -19 -4 -25 -17 -7 -12 -17 -25
-23 -29 -6 -4 -8 -9 -6 -11 3 -3 25 13 50 34 25 21 42 39 38 39 -4 0 -10 -5
-13 -11z"/>
<path d="M5155 9830 c-10 -11 -13 -20 -8 -20 13 0 38 29 31 35 -3 3 -13 -4
-23 -15z"/>
<path d="M7255 9830 c3 -6 2 -10 -2 -10 -5 0 -14 -10 -22 -22 -13 -22 -12 -22
15 2 16 14 30 26 32 26 2 1 -4 4 -13 8 -9 3 -13 2 -10 -4z"/>
<path d="M7387 9708 c-52 -54 -63 -78 -36 -78 6 0 8 4 4 10 -3 5 8 16 25 25
20 10 30 22 26 31 -4 9 1 14 15 14 11 0 17 4 14 10 -3 5 -1 19 5 30 15 28 12
26 -53 -42z"/>
<path d="M6535 9720 c3 -5 11 -10 16 -10 6 0 7 5 4 10 -3 6 -11 10 -16 10 -6
0 -7 -4 -4 -10z"/>
<path d="M7925 9696 c-22 -19 -44 -31 -49 -28 -5 3 -7 -2 -3 -10 3 -9 0 -21
-6 -27 -6 -6 -7 -11 -3 -11 8 0 66 57 95 93 20 25 11 21 -34 -17z"/>
<path d="M7106 9663 c-6 -14 -5 -15 5 -6 7 7 10 15 7 18 -3 3 -9 -2 -12 -12z"/>
<path d="M5975 9650 c-3 -6 1 -7 9 -4 18 7 21 14 7 14 -6 0 -13 -4 -16 -10z"/>
<path d="M7306 9623 c-6 -14 -5 -15 5 -6 7 7 10 15 7 18 -3 3 -9 -2 -12 -12z"/>
<path d="M5180 9578 c0 -9 7 -22 17 -29 15 -13 15 -12 3 11 -17 34 -20 36 -20
18z"/>
<path d="M5211 9504 c0 -11 3 -14 6 -6 3 7 2 16 -1 19 -3 4 -6 -2 -5 -13z"/>
<path d="M7725 9489 c-4 -6 -16 -14 -28 -18 -12 -5 -16 -10 -9 -14 6 -4 23 4
39 18 15 13 23 25 16 25 -6 0 -15 -5 -18 -11z"/>
<path d="M7125 9439 c-28 -28 -40 -46 -29 -40 12 6 24 17 28 26 3 8 13 15 21
15 10 0 13 5 9 12 -5 8 -2 9 9 5 9 -3 19 -1 23 5 5 7 2 8 -6 3 -10 -6 -12 -4
-7 8 3 10 5 17 4 17 -2 0 -25 -23 -52 -51z"/>
<path d="M5190 9445 c-8 -9 -8 -15 -2 -15 12 0 26 19 19 26 -2 2 -10 -2 -17
-11z"/>
<path d="M7653 9428 c-12 -6 -24 -19 -27 -30 -4 -18 0 -16 25 8 38 37 39 40 2
22z"/>
<path d="M5160 9390 c-8 -5 -12 -12 -9 -15 4 -3 12 1 19 10 14 17 11 19 -10 5z"/>
<path d="M5555 9319 c-11 -17 1 -21 15 -4 8 9 8 15 2 15 -6 0 -14 -5 -17 -11z"/>
<path d="M6937 9253 c-20 -20 -37 -40 -37 -45 0 -4 -5 -8 -11 -8 -10 0 -39
-24 -39 -33 0 -3 8 -4 18 -2 9 2 20 4 23 4 4 1 10 13 13 27 6 21 10 24 21 14
12 -10 13 -8 10 10 -3 15 0 20 9 17 8 -3 18 5 25 20 17 38 8 37 -32 -4z"/>
<path d="M5097 9261 c-4 -17 -3 -21 5 -13 5 5 8 16 6 23 -3 8 -7 3 -11 -10z"/>
<path d="M7474 9259 c-8 -14 14 -19 25 -6 8 10 7 14 -5 14 -8 0 -17 -4 -20 -8z"/>
<path d="M7410 9189 c0 -5 5 -7 10 -4 6 3 10 8 10 11 0 2 -4 4 -10 4 -5 0 -10
-5 -10 -11z"/>
<path d="M5071 9178 c0 -9 -4 -25 -7 -35 -5 -14 -4 -15 5 -7 7 7 11 22 8 35
-2 13 -5 16 -6 7z"/>
<path d="M7685 9150 c3 -5 8 -10 11 -10 2 0 4 5 4 10 0 6 -5 10 -11 10 -5 0
-7 -4 -4 -10z"/>
<path d="M5970 9130 c0 -5 5 -10 11 -10 5 0 7 5 4 10 -3 6 -8 10 -11 10 -2 0
-4 -4 -4 -10z"/>
<path d="M5446 9105 c-9 -26 -7 -32 5 -12 6 10 9 21 6 23 -2 3 -7 -2 -11 -11z"/>
<path d="M6022 9085 c6 -14 18 -25 26 -25 12 0 10 6 -8 25 -13 14 -25 25 -27
25 -1 0 3 -11 9 -25z"/>
<path d="M7570 9100 c-9 -6 -10 -10 -3 -10 6 0 15 5 18 10 8 12 4 12 -15 0z"/>
<path d="M5695 9090 c-3 -5 -1 -10 4 -10 6 0 11 5 11 10 0 6 -2 10 -4 10 -3 0
-8 -4 -11 -10z"/>
<path d="M7535 9050 c-16 -16 -25 -33 -22 -37 4 -3 7 -1 7 5 0 7 6 12 13 12
12 0 42 39 34 46 -2 2 -16 -10 -32 -26z"/>
<path d="M6065 9040 c3 -5 8 -10 11 -10 2 0 4 5 4 10 0 6 -5 10 -11 10 -5 0
-7 -4 -4 -10z"/>
<path d="M6650 8975 c-55 -55 -58 -79 -4 -28 30 28 32 30 62 32 13 1 14 3 4 9
-7 5 -10 16 -6 25 10 26 2 21 -56 -38z"/>
<path d="M7223 8995 c-18 -19 -36 -35 -40 -35 -4 0 -14 -12 -21 -27 -9 -20 4
-12 48 32 33 33 60 61 60 62 0 11 -20 -2 -47 -32z"/>
<path d="M4985 9000 c-3 -6 1 -7 9 -4 18 7 21 14 7 14 -6 0 -13 -4 -16 -10z"/>
<path d="M7470 8985 c-11 -13 -10 -14 4 -9 9 3 16 10 16 15 0 13 -6 11 -20 -6z"/>
<path d="M4948 8983 c-10 -2 -18 -9 -18 -14 0 -14 16 -11 30 6 7 8 11 14 9 14
-2 -1 -12 -3 -21 -6z"/>
<path d="M4820 8963 c-17 -7 -30 -23 -30 -38 1 -5 7 -2 14 8 8 10 27 22 43 27
19 6 21 8 8 8 -11 0 -27 -2 -35 -5z"/>
<path d="M7871 8967 c21 -15 59 -37 59 -33 0 11 -33 36 -47 36 -9 0 -14 -1
-12 -3z"/>
<path d="M6170 8945 c0 -14 11 -26 45 -55 l30 -25 -30 35 c-16 19 -33 39 -37
45 -5 6 -8 6 -8 0z"/>
<path d="M7940 8931 c0 -5 5 -13 10 -16 6 -3 10 -2 10 4 0 5 -4 13 -10 16 -5
3 -10 2 -10 -4z"/>
<path d="M7387 8893 c-4 -3 -7 -11 -7 -17 0 -6 5 -5 12 2 6 6 9 14 7 17 -3 3
-9 2 -12 -2z"/>
<path d="M6240 8850 c0 -5 5 -10 11 -10 6 0 9 -7 6 -14 -4 -10 -1 -13 9 -9 18
7 18 11 0 29 -17 16 -26 18 -26 4z"/>
<path d="M5740 8823 c0 -5 16 -23 35 -42 42 -41 47 -24 5 19 -30 30 -40 36
-40 23z"/>
<path d="M5386 8764 c0 -30 3 -56 6 -59 8 -8 9 89 0 102 -4 6 -7 -13 -6 -43z"/>
<path d="M8455 8438 c-337 -338 -363 -366 -374 -410 -17 -70 -13 -111 12 -149
52 -77 127 -98 210 -59 30 14 154 132 415 394 205 205 372 377 372 382 0 5
-32 29 -71 54 -39 25 -97 69 -129 97 -32 29 -61 53 -65 53 -4 0 -171 -163
-370 -362z"/>
<path d="M6440 8760 c-12 -17 -19 -34 -16 -37 3 -4 6 -1 6 6 0 8 6 11 17 7 10
-4 14 -4 11 0 -4 4 -3 15 3 26 18 33 3 31 -21 -2z"/>
<path d="M7002 8774 c-12 -8 -22 -12 -22 -8 0 4 -9 -1 -20 -11 -11 -10 -17
-21 -15 -25 3 -4 -3 -14 -12 -21 -15 -12 -16 -12 -10 3 3 10 2 20 -3 23 -6 4
-10 -3 -10 -14 0 -11 4 -22 9 -26 12 -7 41 22 41 40 0 8 5 17 12 21 8 5 9 2 4
-12 -5 -14 1 -11 23 10 41 40 43 48 3 20z"/>
<path d="M6375 8730 c-3 -5 -1 -10 4 -10 6 0 11 5 11 10 0 6 -2 10 -4 10 -3 0
-8 -4 -11 -10z"/>
<path d="M7363 8680 c0 -25 2 -35 4 -22 2 12 2 32 0 45 -2 12 -4 2 -4 -23z"/>
<path d="M5938 8625 c6 -11 33 -42 61 -70 41 -39 49 -44 39 -22 -7 15 -16 27
-20 27 -5 0 -8 7 -8 16 0 8 -4 13 -9 9 -6 -3 -13 0 -18 7 -4 7 -19 22 -32 33
l-24 20 11 -20z"/>
<path d="M7880 8604 c0 -2 9 -8 20 -14 11 -6 20 -7 20 -2 0 6 -9 12 -20 15
-11 3 -20 3 -20 1z"/>
<path d="M7858 8573 c7 -3 16 -2 19 1 4 3 -2 6 -13 5 -11 0 -14 -3 -6 -6z"/>
<path d="M4894 8546 c31 -18 56 -22 41 -7 -6 5 -23 13 -40 16 l-30 7 29 -16z"/>
<path d="M6745 8525 c-16 -13 -27 -27 -24 -29 3 -3 18 8 34 24 35 36 31 38
-10 5z"/>
<path d="M7330 8516 c-12 -33 -12 -36 -1 -36 10 0 25 50 17 58 -3 2 -10 -7
-16 -22z"/>
<path d="M5413 8495 c-6 -14 -7 -22 -1 -19 5 3 16 -2 24 -12 9 -11 12 -13 9
-6 -4 8 -10 24 -14 37 l-6 24 -12 -24z"/>
<path d="M6690 8465 c-7 -9 -11 -17 -9 -20 3 -2 10 5 17 15 14 24 10 26 -8 5z"/>
<path d="M7700 8426 c0 -31 6 -34 13 -6 3 11 1 23 -4 26 -5 3 -9 -6 -9 -20z"/>
<path d="M7283 8391 c-29 -61 -29 -76 -1 -31 19 28 36 81 26 80 -2 -1 -13 -22
-25 -49z"/>
<path d="M6201 8353 c18 -23 52 -52 61 -53 15 0 -5 29 -22 35 -12 4 -17 12
-14 23 5 14 4 15 -5 2 -7 -10 -11 -11 -11 -2 0 6 -5 12 -11 12 -8 0 -7 -6 2
-17z"/>
<path d="M5077 8308 c5 -7 16 -33 23 -58 11 -35 15 -40 18 -22 4 27 -18 80
-37 87 -10 4 -11 2 -4 -7z"/>
<path d="M6518 8293 c7 -3 16 -2 19 1 4 3 -2 6 -13 5 -11 0 -14 -3 -6 -6z"/>
<path d="M9140 8238 c-166 -16 -277 -99 -356 -263 -66 -137 -56 -293 25 -414
83 -124 179 -191 301 -210 78 -13 1276 -14 1393 -2 249 26 434 261 397 504
-26 175 -143 315 -310 369 -63 20 -81 21 -725 22 -363 1 -689 -2 -725 -6z
m436 -151 c12 -7 50 -46 85 -87 67 -79 90 -101 101 -97 3 1 39 42 78 90 40 49
84 93 97 98 32 12 81 -13 89 -45 8 -33 -12 -67 -95 -161 -39 -44 -71 -85 -71
-90 0 -6 36 -55 79 -110 44 -55 85 -110 92 -122 25 -46 -29 -104 -83 -89 -13
3 -50 40 -82 81 -32 41 -71 86 -86 100 l-27 26 -28 -33 c-15 -18 -56 -63 -91
-100 -52 -55 -71 -68 -95 -68 -32 0 -79 38 -79 64 0 8 22 38 48 68 89 98 142
170 135 181 -3 7 -34 46 -68 87 -77 94 -105 135 -105 151 0 19 51 69 69 69 9
-1 26 -6 37 -13z m-251 -37 c14 -5 30 -21 35 -35 18 -47 -3 -69 -202 -213 -20
-15 -36 -31 -34 -37 1 -5 47 -40 100 -76 112 -75 142 -112 126 -153 -5 -15
-17 -29 -25 -32 -20 -8 -69 12 -125 51 -25 17 -86 57 -136 88 -50 31 -98 65
-106 74 -19 21 -32 83 -21 99 5 6 55 42 113 79 58 37 123 83 145 101 33 26 92
64 102 64 1 0 13 -4 28 -10z m1393 -226 c14 -9 22 -24 22 -42 -1 -62 -28 -71
-201 -72 -79 0 -207 3 -283 7 -116 5 -142 9 -157 24 -25 25 -24 55 4 83 l22
22 285 -4 c224 -3 290 -7 308 -18z"/>
<path d="M5563 8205 c0 -14 2 -25 6 -25 10 0 11 39 2 45 -5 2 -8 -7 -8 -20z"/>
<path d="M7159 8193 c-13 -16 -12 -17 4 -4 9 7 17 15 17 17 0 8 -8 3 -21 -13z"/>
<path d="M5126 8185 c4 -8 11 -15 16 -15 6 0 5 6 -2 15 -7 8 -14 15 -16 15 -2
0 -1 -7 2 -15z"/>
<path d="M5598 8159 c3 -21 7 -27 13 -18 4 7 3 21 -2 31 -14 25 -16 23 -11
-13z"/>
<path d="M7103 8131 c-20 -23 -29 -42 -24 -50 6 -9 14 -6 30 15 11 14 21 33
21 40 0 8 5 14 10 14 6 0 10 -5 10 -12 0 -6 2 -9 5 -6 7 7 -5 38 -14 37 -3 0
-20 -17 -38 -38z m7 -25 c0 -2 -7 -7 -16 -10 -8 -3 -12 -2 -9 4 6 10 25 14 25
6z"/>
<path d="M5636 8127 c3 -10 9 -15 12 -12 3 3 0 11 -7 18 -10 9 -11 8 -5 -6z"/>
<path d="M7535 8060 c3 -5 8 -10 11 -10 2 0 4 5 4 10 0 6 -5 10 -11 10 -5 0
-7 -4 -4 -10z"/>
<path d="M7520 8001 c0 -17 4 -32 8 -35 4 -2 6 11 4 30 -5 42 -12 45 -12 5z"/>
<path d="M5188 7914 c-20 -40 -34 -74 -30 -74 11 0 75 126 71 138 -2 6 -21
-23 -41 -64z"/>
<path d="M5790 7985 c0 -15 58 -63 68 -56 8 5 3 14 -15 27 -40 29 -53 36 -53
29z"/>
<path d="M6900 7960 c-9 -6 -10 -10 -3 -10 6 0 15 5 18 10 8 12 4 12 -15 0z"/>
<path d="M6848 7931 c-16 -9 -28 -22 -28 -30 0 -11 3 -11 15 -1 8 6 18 9 23 6
6 -3 12 4 15 16 8 28 8 28 -25 9z"/>
<path d="M6898 7933 c6 -2 18 -2 25 0 6 3 1 5 -13 5 -14 0 -19 -2 -12 -5z"/>
<path d="M5886 7921 c-3 -5 4 -11 16 -14 30 -8 35 -1 9 12 -11 6 -22 7 -25 2z"/>
<path d="M6765 7890 c-18 -7 -18 -9 9 -19 33 -13 39 -11 30 13 -7 18 -10 18
-39 6z"/>
<path d="M5132 7804 c-7 -14 -8 -23 -2 -19 15 9 32 45 22 45 -5 0 -14 -12 -20
-26z"/>
<path d="M6149 7821 c7 -5 11 -14 7 -20 -4 -7 -1 -9 8 -5 19 7 9 34 -13 34
-13 0 -13 -2 -2 -9z"/>
<path d="M6195 7810 c4 -6 11 -8 16 -5 14 9 11 15 -7 15 -8 0 -12 -5 -9 -10z"/>
<path d="M6518 7813 c6 -2 18 -2 25 0 6 3 1 5 -13 5 -14 0 -19 -2 -12 -5z"/>
<path d="M6240 7799 c0 -5 5 -7 10 -4 6 3 10 8 10 11 0 2 -4 4 -10 4 -5 0 -10
-5 -10 -11z"/>
<path d="M6370 7799 c0 -5 5 -7 10 -4 6 3 10 8 10 11 0 2 -4 4 -10 4 -5 0 -10
-5 -10 -11z"/>
<path d="M5170 7721 c0 -6 4 -13 10 -16 6 -3 7 1 4 9 -7 18 -14 21 -14 7z"/>
<path d="M5250 7633 c0 -5 10 -18 23 -29 l22 -19 -20 25 c-11 14 -21 27 -22
29 -2 2 -3 0 -3 -6z"/>
<path d="M7075 7610 c-8 -13 15 -13 35 0 12 8 11 10 -7 10 -12 0 -25 -4 -28
-10z"/>
<path d="M7050 7595 c0 -8 4 -15 10 -15 5 0 7 7 4 15 -4 8 -8 15 -10 15 -2 0
-4 -7 -4 -15z"/>
<path d="M5535 7580 c-3 -5 -1 -10 4 -10 6 0 11 5 11 10 0 6 -2 10 -4 10 -3 0
-8 -4 -11 -10z"/>
<path d="M5880 7486 c0 -2 7 -7 16 -10 8 -3 12 -2 9 4 -6 10 -25 14 -25 6z"/>
<path d="M6770 7460 c0 -5 5 -10 10 -10 6 0 10 5 10 10 0 6 -4 10 -10 10 -5 0
-10 -4 -10 -10z"/>
<path d="M6117 7393 c-4 -3 -7 -11 -7 -17 0 -6 5 -5 12 2 6 6 9 14 7 17 -3 3
-9 2 -12 -2z"/>
<path d="M6574 7243 c-3 -10 -13 -31 -21 -48 l-16 -30 20 20 c12 11 23 32 27
48 7 30 -1 38 -10 10z"/>
<path d="M6150 7233 c0 -15 46 -66 56 -62 5 2 -6 19 -23 37 -18 19 -33 30 -33
25z"/>
<path d="M6438 7163 c7 -3 16 -2 19 1 4 3 -2 6 -13 5 -11 0 -14 -3 -6 -6z"/>
<path d="M6108 5113 c7 -3 16 -2 19 1 4 3 -2 6 -13 5 -11 0 -14 -3 -6 -6z"/>
<path d="M6111 5071 c-8 -6 -9 -11 -3 -15 6 -3 14 -1 17 5 9 14 2 20 -14 10z"/>
<path d="M10906 5131 c-4 -7 -5 -15 -2 -18 9 -9 19 4 14 18 -4 11 -6 11 -12 0z"/>
<path d="M10895 5060 c-11 -17 5 -31 19 -17 14 12 12 27 -4 27 -5 0 -12 -4
-15 -10z"/>
<path d="M10938 6473 c7 -3 16 -2 19 1 4 3 -2 6 -13 5 -11 0 -14 -3 -6 -6z"/>
<path d="M4798 6453 c7 -3 16 -2 19 1 4 3 -2 6 -13 5 -11 0 -14 -3 -6 -6z"/>
<path d="M4908 6453 c23 -2 59 -2 80 0 20 2 1 4 -43 4 -44 0 -61 -2 -37 -4z"/>
<path d="M11055 6440 c-3 -5 1 -10 9 -10 9 0 16 5 16 10 0 6 -4 10 -9 10 -6 0
-13 -4 -16 -10z"/>
<path d="M4888 6428 c5 -5 16 -8 23 -6 8 3 3 7 -10 11 -17 4 -21 3 -13 -5z"/>
<path d="M5012 6424 c-12 -9 -11 -10 9 -8 13 1 24 3 24 4 0 1 15 3 33 5 17 1
32 -1 32 -6 0 -5 5 -9 11 -9 5 0 8 4 4 10 -3 5 26 11 72 13 43 2 22 3 -46 3
-73 -1 -130 -5 -139 -12z"/>
<path d="M5395 6430 c3 -5 46 -10 95 -10 49 0 92 5 95 10 4 6 -30 10 -95 10
-65 0 -99 -4 -95 -10z"/>
<path d="M5608 6433 c6 -2 18 -2 25 0 6 3 1 5 -13 5 -14 0 -19 -2 -12 -5z"/>
<path d="M5933 6433 c-33 -13 -6 -21 68 -19 44 1 83 -2 85 -5 7 -13 44 3 44
18 0 13 -3 13 -16 2 -9 -7 -18 -9 -22 -3 -7 10 -138 16 -159 7z"/>
<path d="M6140 6430 c0 -5 9 -10 21 -10 11 0 17 5 14 10 -3 6 -13 10 -21 10
-8 0 -14 -4 -14 -10z"/>
<path d="M6258 6433 c18 -2 45 -2 60 0 15 2 0 4 -33 4 -33 0 -45 -2 -27 -4z"/>
<path d="M6383 6434 c9 -9 195 -12 272 -4 55 6 33 7 -104 9 -96 0 -172 -2
-168 -5z"/>
<path d="M6955 6430 c28 -4 57 -10 66 -14 10 -4 19 -3 23 2 3 5 48 7 101 6 57
-2 95 0 95 6 0 6 -65 9 -167 9 -110 -1 -151 -4 -118 -9z"/>
<path d="M7510 6432 c0 -12 248 -13 255 -2 4 6 -42 10 -124 10 -72 0 -131 -4
-131 -8z"/>
<path d="M8100 6424 c-25 -15 -25 -15 10 -10 57 9 146 10 158 2 7 -4 18 -4 25
1 6 4 41 6 77 4 36 -1 62 0 58 4 -4 4 -74 9 -155 10 -118 3 -153 0 -173 -11z"/>
<path d="M8750 6430 c0 -5 5 -10 10 -10 6 0 10 5 10 10 0 6 -4 10 -10 10 -5 0
-10 -4 -10 -10z"/>
<path d="M8834 6433 c11 -11 206 -15 206 -5 0 6 -45 10 -106 10 -58 1 -103 -2
-100 -5z"/>
<path d="M9343 6433 c9 -2 25 -2 35 0 9 3 1 5 -18 5 -19 0 -27 -2 -17 -5z"/>
<path d="M9409 6431 c14 -9 179 -6 189 3 3 3 -42 6 -99 6 -61 0 -98 -4 -90 -9z"/>
<path d="M10140 6430 c0 -5 12 -10 28 -9 24 0 25 1 7 9 -27 12 -35 12 -35 0z"/>
<path d="M4828 6423 c7 -3 16 -2 19 1 4 3 -2 6 -13 5 -11 0 -14 -3 -6 -6z"/>
<path d="M4960 6420 c19 -13 30 -13 30 0 0 6 -10 10 -22 10 -19 0 -20 -2 -8
-10z"/>
<path d="M9928 6423 c6 -2 18 -2 25 0 6 3 1 5 -13 5 -14 0 -19 -2 -12 -5z"/>
<path d="M10018 6423 c12 -2 32 -2 45 0 12 2 2 4 -23 4 -25 0 -35 -2 -22 -4z"/>
<path d="M10098 6423 c7 -3 16 -2 19 1 4 3 -2 6 -13 5 -11 0 -14 -3 -6 -6z"/>
<path d="M10860 6426 c0 -2 7 -7 16 -10 8 -3 12 -2 9 4 -6 10 -25 14 -25 6z"/>
<path d="M7750 6410 c-8 -5 -10 -10 -5 -10 6 0 17 5 25 10 8 5 11 10 5 10 -5
0 -17 -5 -25 -10z"/>
<path d="M6500 6362 c0 -41 7 -47 95 -90 38 -19 60 -23 97 -20 29 3 48 1 48
-5 0 -6 8 -3 18 6 14 13 21 14 30 5 9 -9 12 -9 12 0 0 14 36 16 45 2 3 -5 13
-10 21 -10 8 0 14 5 14 10 0 6 -7 10 -15 10 -8 0 -15 5 -15 10 0 6 7 10 15 10
8 0 15 5 15 10 0 12 -37 13 -42 1 -1 -5 -14 -11 -28 -13 -19 -2 -25 1 -24 14
1 11 -10 22 -32 30 -19 7 -34 16 -34 20 0 4 -18 8 -40 8 -22 0 -40 3 -40 8 0
8 -92 32 -123 32 -13 0 -17 -9 -17 -38z m201 -22 c11 0 19 -7 19 -15 0 -17
-11 -18 -99 -9 -45 5 -61 11 -61 22 0 12 11 14 61 8 34 -3 70 -6 80 -6z m62
-35 c7 -16 -8 -29 -23 -20 -15 9 -12 35 4 35 8 0 16 -7 19 -15z m-73 -25 c22
-7 21 -8 -12 -9 -21 -1 -38 4 -38 9 0 11 14 11 50 0z"/>
<path d="M5056 6375 c-7 -19 3 -47 15 -39 5 3 9 14 9 24 0 24 -16 34 -24 15z"/>
<path d="M6825 6371 c-33 -3 -55 -8 -50 -11 17 -9 185 1 185 11 0 9 -35 9
-135 0z"/>
<path d="M7053 6373 c9 -2 25 -2 35 0 9 3 1 5 -18 5 -19 0 -27 -2 -17 -5z"/>
<path d="M7360 6358 c0 -5 36 -8 80 -8 46 0 80 4 80 10 0 6 -32 9 -80 7 -44
-1 -80 -5 -80 -9z"/>
<path d="M7630 6360 c-22 -7 -21 -8 13 -9 20 -1 37 4 37 9 0 11 -14 11 -50 0z"/>
<path d="M5691 6324 c-17 -20 -8 -28 24 -20 22 6 25 9 15 21 -15 19 -21 18
-39 -1z"/>
<path d="M5780 6330 c14 -4 44 -8 68 -9 23 -1 42 -4 42 -8 0 -4 -12 -19 -27
-35 -14 -15 -24 -30 -21 -33 9 -9 232 -10 247 -1 10 6 12 5 7 -2 -8 -13 13
-16 29 -4 26 19 37 82 14 82 -4 0 -6 -7 -3 -15 8 -20 -3 -19 -33 5 -20 15 -39
20 -82 19 -34 -1 -44 -4 -26 -6 34 -5 57 -21 49 -34 -7 -12 -44 -11 -44 1 0 5
-17 12 -37 16 -21 4 -40 10 -43 14 -3 4 -41 9 -85 13 -46 3 -69 2 -55 -3z"/>
<path d="M9760 6330 c0 -5 7 -10 16 -10 8 0 12 5 9 10 -3 6 -10 10 -16 10 -5
0 -9 -4 -9 -10z"/>
<path d="M6812 6321 c-8 -5 6 -6 35 -4 40 4 51 1 67 -16 11 -12 25 -21 33 -21
7 0 13 -4 13 -9 0 -16 153 -24 201 -10 l44 13 -55 8 c-30 4 -74 6 -96 3 -57
-8 -94 3 -94 26 0 17 -8 19 -67 19 -38 0 -74 -4 -81 -9z"/>
<path d="M7090 6321 c83 -13 220 -19 220 -9 0 4 -33 8 -74 8 -40 0 -102 2
-137 5 l-64 4 55 -8z"/>
<path d="M7398 6323 c23 -2 61 -2 85 0 23 2 4 4 -43 4 -47 0 -66 -2 -42 -4z"/>
<path d="M8258 6323 c12 -2 32 -2 45 0 12 2 2 4 -23 4 -25 0 -35 -2 -22 -4z"/>
<path d="M8785 6320 c-17 -7 -17 -9 -2 -9 13 -1 17 -10 17 -38 0 -29 3 -34 10
-23 6 8 7 27 4 42 -4 20 -1 27 13 31 16 4 15 5 -2 5 -11 0 -29 -3 -40 -8z"/>
<path d="M10378 6323 c7 -3 16 -2 19 1 4 3 -2 6 -13 5 -11 0 -14 -3 -6 -6z"/>
<path d="M8082 6283 c-2 -47 -16 -57 -26 -18 -8 31 -22 32 -29 3 -7 -26 -9
-23 26 -32 32 -8 40 5 34 56 -3 30 -4 29 -5 -9z"/>
<path d="M8153 6280 c0 -25 2 -35 4 -22 2 12 2 32 0 45 -2 12 -4 2 -4 -23z"/>
<path d="M8639 6307 c11 -11 128 -22 118 -11 -4 5 -35 11 -67 14 -33 3 -56 2
-51 -3z"/>
<path d="M8898 6313 c12 -2 32 -2 45 0 12 2 2 4 -23 4 -25 0 -35 -2 -22 -4z"/>
<path d="M9040 6310 c0 -5 62 -9 154 -8 84 0 159 -2 165 -6 6 -4 21 -4 34 0
21 8 20 8 -8 15 -48 11 -345 10 -345 -1z"/>
<path d="M9520 6309 c0 -11 45 -10 115 1 46 7 44 7 -32 8 -46 0 -83 -4 -83 -9z"/>
<path d="M5740 6295 c-14 -8 -33 -18 -42 -21 -10 -3 -18 -10 -18 -15 0 -5 -18
-6 -40 -3 -29 5 -40 3 -40 -6 0 -10 20 -12 88 -7 123 9 152 16 152 37 0 12
-11 20 -31 24 -41 8 -40 8 -69 -9z"/>
<path d="M7375 6284 c48 -8 165 -9 165 -2 0 4 -42 7 -92 7 -51 -1 -84 -3 -73
-5z"/>
<path d="M7693 6283 c15 -2 37 -2 50 0 12 2 0 4 -28 4 -27 0 -38 -2 -22 -4z"/>
<path d="M8845 6280 c-13 -21 9 -27 65 -21 l55 7 -40 7 c-22 5 -47 10 -57 13
-9 3 -19 0 -23 -6z"/>
<path d="M9040 6271 c0 -10 148 -26 157 -17 4 3 -14 7 -38 8 l-44 1 45 7 c39
6 33 7 -37 8 -46 1 -83 -2 -83 -7z"/>
<path d="M9510 6270 c-10 -6 -11 -10 -2 -10 6 0 12 -4 12 -10 0 -5 -7 -10 -17
-10 -9 0 -14 -2 -12 -4 2 -3 29 -1 59 4 46 6 49 8 18 9 -29 1 -36 4 -32 16 7
17 -4 19 -26 5z"/>
<path d="M6150 6263 c1 -19 18 -28 53 -28 29 0 37 4 37 18 0 14 -9 17 -45 17
-25 0 -45 -3 -45 -7z"/>
<path d="M9277 6253 c5 -12 83 -23 83 -11 0 5 17 8 37 8 20 0 33 3 29 7 -12
13 -154 9 -149 -4z"/>
<path d="M7920 6250 c0 -5 18 -10 40 -10 22 0 40 5 40 10 0 6 -18 10 -40 10
-22 0 -40 -4 -40 -10z"/>
<path d="M8340 6250 c-28 -9 -21 -12 31 -14 25 -1 35 3 32 12 -6 13 -25 14
-63 2z"/>
<path d="M7425 6240 c39 -3 77 -3 85 1 8 5 -23 8 -70 7 l-85 -1 70 -7z"/>
<path d="M8733 6243 c9 -2 23 -2 30 0 6 3 -1 5 -18 5 -16 0 -22 -2 -12 -5z"/>
<path d="M4290 6223 c0 -7 7 -13 15 -13 8 0 15 6 15 13 0 8 -7 14 -15 14 -8 0
-15 -6 -15 -14z"/>
<path d="M7618 6233 c6 -2 18 -2 25 0 6 3 1 5 -13 5 -14 0 -19 -2 -12 -5z"/>
<path d="M8778 6213 c7 -3 16 -2 19 1 4 3 -2 6 -13 5 -11 0 -14 -3 -6 -6z"/>
<path d="M8958 6213 c18 -2 45 -2 60 0 15 2 0 4 -33 4 -33 0 -45 -2 -27 -4z"/>
<path d="M4240 6186 c0 -8 4 -17 9 -20 5 -4 7 3 4 14 -6 23 -13 26 -13 6z"/>
<path d="M4290 6175 c0 -9 6 -12 17 -8 12 5 14 3 8 -7 -5 -8 -4 -11 3 -6 15 9
4 36 -14 36 -8 0 -14 -7 -14 -15z"/>
<path d="M4241 6114 c0 -11 3 -14 6 -6 3 7 2 16 -1 19 -3 4 -6 -2 -5 -13z"/>
<path d="M4290 6095 c0 -8 4 -15 10 -15 5 0 7 7 4 15 -4 8 -8 15 -10 15 -2 0
-4 -7 -4 -15z"/>
<path d="M4231 6064 c0 -11 3 -14 6 -6 3 7 2 16 -1 19 -3 4 -6 -2 -5 -13z"/>
<path d="M4495 6040 c-3 -5 7 -10 22 -12 20 -2 27 -8 25 -20 -2 -10 2 -18 7
-18 12 0 25 39 16 48 -10 10 -64 11 -70 2z"/>
<path d="M4252 6020 c0 -14 2 -19 5 -12 2 6 2 18 0 25 -3 6 -5 1 -5 -13z"/>
<path d="M4301 6014 c0 -11 3 -14 6 -6 3 7 2 16 -1 19 -3 4 -6 -2 -5 -13z"/>
<path d="M4220 5985 c0 -8 -7 -15 -16 -15 -8 0 -12 -4 -9 -10 3 -5 24 -10 45
-10 33 0 38 -3 33 -17 -5 -14 -3 -16 7 -6 10 9 9 17 -7 37 -16 20 -23 22 -33
13 -10 -10 -12 -8 -7 6 4 9 2 17 -3 17 -6 0 -10 -7 -10 -15z"/>
<path d="M3968 5983 c6 -2 18 -2 25 0 6 3 1 5 -13 5 -14 0 -19 -2 -12 -5z"/>
<path d="M4035 5983 c11 -3 24 -9 30 -14 5 -5 13 -9 19 -9 5 0 1 7 -10 15 -10
8 -28 14 -39 14 l-20 -1 20 -5z"/>
<path d="M4270 5982 c0 -4 18 -6 40 -4 22 2 40 6 40 8 0 2 -18 4 -40 4 -22 0
-40 -3 -40 -8z"/>
<path d="M4061 5937 c2 -1 13 -9 24 -17 19 -14 19 -14 6 3 -7 9 -18 17 -24 17
-6 0 -8 -1 -6 -3z"/>
<path d="M4125 5914 c-8 -6 -15 -17 -15 -24 0 -9 -7 -7 -21 6 -22 19 -22 19
-10 -3 14 -27 19 -28 45 -8 11 8 32 15 47 15 15 0 30 4 34 10 3 5 12 7 19 4 8
-3 17 0 21 6 9 15 -98 10 -120 -6z"/>
<path d="M3820 5888 c-47 -10 -94 -19 -105 -20 -11 -1 -26 -8 -34 -15 -7 -8
-21 -11 -31 -8 -10 3 -21 1 -25 -5 -3 -6 -11 -8 -16 -5 -5 4 -12 -1 -15 -10
-4 -9 -12 -14 -20 -11 -15 6 -98 -70 -108 -97 -7 -21 -33 -17 -28 4 2 8 -6 4
-17 -8 -26 -28 -26 -33 1 -25 15 4 19 2 13 -8 -9 -14 -10 -14 60 20 28 14 53
30 57 35 4 6 8 6 8 1 0 -5 8 -2 18 7 39 36 212 65 212 35 0 -5 7 -8 15 -4 8 3
19 -3 25 -13 8 -16 23 -19 105 -20 l95 -2 0 26 c0 26 -43 117 -63 133 -17 14
-50 11 -147 -10z m50 -83 c19 -22 8 -25 -12 -3 -10 10 -14 18 -9 18 5 0 14 -7
21 -15z"/>
<path d="M4270 5890 c0 -14 29 -18 190 -26 233 -11 245 -14 264 -57 19 -46 61
-87 88 -87 13 0 61 14 107 30 74 27 165 41 148 24 -14 -14 -114 -43 -152 -45
l-40 -1 50 -13 c28 -7 104 -17 170 -24 224 -21 525 -105 525 -147 0 -10 3 -14
7 -10 12 12 4 150 -11 186 -24 58 -91 120 -152 141 -22 7 -44 12 -50 11 -6 -1
-30 5 -54 13 -48 17 -135 21 -125 5 3 -5 -1 -10 -10 -10 -9 0 -14 3 -11 8 2 4
-24 9 -60 10 -82 4 -84 -11 -9 -57 87 -53 98 -93 23 -85 -39 3 -80 24 -48 24
15 0 5 13 -13 16 -7 1 -30 10 -52 20 -22 10 -43 17 -47 16 -4 -1 -41 7 -83 18
-44 11 -135 23 -213 27 -96 5 -125 9 -97 14 22 3 -47 7 -152 8 -121 0 -193 -3
-193 -9z"/>
<path d="M4223 5860 c-45 -10 -63 -28 -63 -59 0 -50 5 -52 201 -61 238 -12
228 -12 207 1 -10 5 -18 16 -18 23 0 7 -15 29 -32 50 l-33 37 -95 3 c-52 1
-104 5 -115 9 -11 3 -35 2 -52 -3z"/>
<path d="M3760 5753 c-112 -10 -140 -15 -140 -24 0 -6 9 -7 21 -4 11 4 47 9
80 11 34 2 65 6 70 9 5 4 9 1 9 -5 0 -6 5 -8 10 -5 14 9 12 25 -2 23 -7 0 -29
-3 -48 -5z"/>
<path d="M5624 5379 c-19 -21 -19 -21 9 -8 15 7 27 16 27 21 0 14 -16 9 -36
-13z"/>
<path d="M5067 5323 c-8 -14 -20 -97 -19 -125 1 -15 -2 -29 -8 -33 -5 -3 -10
-22 -10 -42 0 -30 2 -34 15 -23 13 11 15 8 15 -13 0 -41 -57 -316 -78 -378
-67 -193 -149 -280 -301 -319 -42 -11 -323 -7 -426 6 -22 3 -266 8 -542 11
-459 5 -502 7 -506 22 -8 32 38 276 72 386 10 33 22 74 26 91 3 17 26 84 49
148 28 74 38 112 28 104 -21 -18 -37 -58 -93 -240 -50 -164 -93 -348 -104
-454 -12 -101 -25 -97 324 -90 290 7 530 0 904 -25 217 -15 284 -8 381 40 155
76 233 223 291 546 42 232 45 248 61 303 15 52 15 54 -5 73 -20 19 -66 26 -74
12z m67 -38 c3 -8 1 -17 -4 -20 -6 -4 -10 -22 -10 -41 0 -19 -4 -34 -10 -34
-5 0 -10 9 -10 19 0 11 -5 23 -12 27 -8 5 -6 11 6 19 15 12 15 13 0 19 -13 5
-14 9 -4 21 13 16 36 10 44 -10z m-24 -117 c0 -12 -14 -10 -28 4 -19 19 -14
29 8 16 11 -7 20 -16 20 -20z m-25 -24 c9 -9 14 -18 11 -21 -6 -6 -46 20 -46
29 0 13 18 9 35 -8z"/>
<path d="M7138 4391 c30 -60 34 -79 34 -140 0 -104 -10 -149 -47 -218 -42 -80
-28 -72 18 10 41 73 48 101 49 193 0 79 -28 168 -65 202 -20 19 -19 13 11 -47z"/>
<path d="M5574 4400 c-3 -2 -17 -4 -32 -5 -23 0 -27 -5 -33 -38 -3 -21 -2 -40
4 -44 6 -4 7 -1 2 7 -5 9 -4 11 3 6 7 -4 12 -26 11 -49 0 -33 -2 -38 -9 -22
-5 11 -9 15 -9 8 -1 -7 -7 -10 -15 -7 -10 4 -15 -8 -21 -41 -3 -26 -4 -50 0
-53 10 -10 26 21 21 41 -2 9 0 15 4 12 5 -3 11 1 14 7 5 11 4 -6 -4 -37 -7
-28 1 -44 18 -39 11 4 8 -1 -8 -15 -23 -19 -23 -21 -5 -21 20 -1 20 -1 1 -15
-29 -22 -1 -18 47 7 23 12 49 23 57 24 30 5 86 29 88 39 2 6 14 9 28 8 13 -1
22 2 19 8 -4 5 -1 9 6 9 6 0 9 8 6 20 -4 16 -2 18 13 10 29 -16 49 -12 76 15
14 14 28 25 32 25 4 0 13 9 20 21 10 16 16 18 27 9 11 -9 21 -7 45 10 17 12
28 25 26 29 -3 4 4 8 15 8 10 1 26 9 35 17 11 11 36 16 82 17 43 0 60 3 47 8
-20 8 -93 6 -147 -3 -18 -3 -28 0 -28 8 0 10 -31 13 -121 15 -67 1 -126 4
-130 7 -5 3 -6 -2 -3 -10 4 -12 0 -16 -16 -16 -11 0 -18 5 -15 10 3 6 -2 10
-12 11 -10 0 -44 1 -76 2 -32 1 -61 0 -63 -3z m356 -49 c0 -6 -4 -13 -10 -16
-5 -3 -10 1 -10 9 0 9 5 16 10 16 6 0 10 -4 10 -9z m-100 -122 c0 -11 -21 -11
-39 0 -9 6 -5 9 13 9 14 0 26 -4 26 -9z m-256 -75 c14 -5 13 -9 -5 -25 -26
-23 -36 -25 -19 -4 6 8 9 19 5 25 -7 12 -3 12 19 4z"/>
<path d="M6225 4370 c3 -5 13 -10 21 -10 8 0 14 5 14 10 0 6 -9 10 -21 10 -11
0 -17 -4 -14 -10z"/>
<path d="M6348 4353 c-27 -8 -48 -18 -48 -22 0 -4 20 -21 45 -39 24 -17 65
-60 90 -94 63 -88 63 -88 90 -88 31 0 33 -16 4 -23 -17 -5 -20 -11 -15 -29 35
-119 40 -206 19 -294 -4 -19 1 -22 34 -27 21 -3 50 -8 64 -12 37 -10 125 63
159 130 50 100 26 263 -54 368 -38 50 -125 111 -181 126 -63 17 -155 19 -207
4z"/>
<path d="M5495 4289 c-4 -6 -5 -13 -2 -16 7 -7 27 6 27 18 0 12 -17 12 -25 -2z"/>
<path d="M6100 4170 c0 -20 25 -38 36 -27 8 7 -15 47 -26 47 -6 0 -10 -9 -10
-20z"/>
<path d="M5467 4144 c-11 -12 -9 -86 3 -79 6 4 8 10 5 15 -3 4 0 10 6 12 9 3
9 12 3 32 -5 15 -13 24 -17 20z"/>
<path d="M6150 4090 c0 -5 7 -10 15 -10 8 0 15 -4 15 -10 0 -5 5 -10 10 -10 7
0 7 6 0 20 -11 21 -40 28 -40 10z"/>
<path d="M6201 4030 c-1 -27 14 -58 24 -49 3 3 -1 21 -9 40 -14 31 -15 32 -15
9z"/>
<path d="M6232 3913 c15 -34 28 -51 28 -35 0 18 -22 62 -31 62 -5 0 -3 -12 3
-27z"/>
<path d="M6271 3774 c0 -11 3 -14 6 -6 3 7 2 16 -1 19 -3 4 -6 -2 -5 -13z"/>
<path d="M6261 3690 c-2 -14 -5 -38 -7 -54 -2 -20 0 -26 7 -19 6 6 9 30 6 54
-2 25 -5 33 -6 19z"/>
<path d="M11838 3650 c2 -17 9 -33 15 -37 6 -4 8 2 4 18 -4 13 -7 30 -7 37 0
6 -4 12 -8 12 -5 0 -7 -14 -4 -30z"/>
<path d="M6920 3634 c-47 -14 -98 -27 -115 -30 -35 -6 -74 -24 -93 -41 -18
-17 -78 -32 -102 -26 -12 3 -22 -1 -26 -10 -5 -13 -83 -60 -104 -62 -69 -9
-101 -18 -91 -24 7 -5 -19 -11 -61 -15 -211 -20 -202 -18 -183 -33 11 -7 15
-13 10 -13 -5 0 -17 7 -27 17 -15 14 -22 14 -45 4 -22 -10 -24 -14 -12 -22 7
-5 9 -9 4 -9 -6 0 -16 5 -22 11 -8 8 -13 8 -17 0 -4 -6 -14 -11 -23 -11 -13 0
-13 3 -3 15 10 13 9 15 -8 15 -11 0 -32 -4 -46 -10 -14 -5 -49 -12 -78 -15
-76 -9 -72 -15 8 -15 38 0 233 -2 433 -5 317 -4 367 -3 382 11 15 13 17 13 22
-1 5 -11 21 -15 57 -15 29 0 49 4 46 9 -8 12 36 22 99 21 120 0 187 6 194 19
11 17 59 41 82 41 11 0 37 18 59 40 22 22 36 40 30 40 -5 0 -10 18 -10 40 0
36 -2 40 -25 40 -14 0 -38 9 -53 20 -26 19 -119 41 -172 39 -14 0 -63 -12
-110 -25z m-933 -260 c-3 -3 -12 -4 -19 -1 -8 3 -5 6 6 6 11 1 17 -2 13 -5z"/>
<path d="M11852 3580 c0 -14 4 -38 8 -55 l8 -30 0 30 c0 17 -4 41 -8 55 l-8
25 0 -25z"/>
<path d="M6165 3480 c-3 -5 -1 -10 4 -10 6 0 11 5 11 10 0 6 -2 10 -4 10 -3 0
-8 -4 -11 -10z"/>
<path d="M11873 3445 c0 -27 2 -38 4 -22 2 15 2 37 0 50 -2 12 -4 0 -4 -28z"/>
<path d="M6135 3460 c-3 -5 -1 -10 4 -10 6 0 11 5 11 10 0 6 -2 10 -4 10 -3 0
-8 -4 -11 -10z"/>
<path d="M4701 2837 c-6 -8 -8 -23 -4 -33 6 -15 8 -14 15 11 9 34 5 41 -11 22z"/>
<path d="M3185 2749 c-4 -5 -9 -29 -11 -52 -3 -23 -10 -59 -15 -81 -9 -32 -6
-59 4 -45 4 6 34 189 31 189 -2 0 -6 -5 -9 -11z"/>
<path d="M4722 2580 c0 -14 2 -19 5 -12 2 6 2 18 0 25 -3 6 -5 1 -5 -13z"/>
<path d="M3134 2565 c13 -36 19 -75 10 -75 -5 0 -8 -24 -7 -52 0 -29 -3 -68
-7 -86 -6 -24 -6 -32 3 -29 8 2 15 44 20 116 7 99 6 113 -10 129 -16 16 -16
16 -9 -3z"/>
<path d="M4732 2500 c0 -14 2 -19 5 -12 2 6 2 18 0 25 -3 6 -5 1 -5 -13z"/>
<path d="M4737 2422 c-9 -13 1 -100 12 -106 3 -2 5 17 3 42 -5 72 -6 79 -15
64z"/>
<path d="M3128 2287 c-5 -10 -7 -49 -7 -85 l1 -67 9 60 c11 70 9 121 -3 92z"/>
<path d="M4751 2215 c0 -16 4 -37 9 -45 8 -12 10 -11 9 5 -1 11 -5 31 -9 45
-8 24 -8 24 -9 -5z"/>
<path d="M4757 2114 c-3 -20 0 -89 8 -153 8 -64 15 -122 15 -128 0 -7 5 -13
10 -13 15 0 12 117 -6 227 -8 54 -17 99 -18 101 -2 1 -6 -14 -9 -34z"/>
<path d="M3104 2076 c-3 -14 -10 -23 -15 -20 -13 8 -11 -10 5 -40 13 -26 13
-26 19 26 5 59 2 75 -9 34z"/>
<path d="M3130 2050 c0 -5 5 -10 10 -10 6 0 10 5 10 10 0 6 -4 10 -10 10 -5 0
-10 -4 -10 -10z"/>
<path d="M3166 2041 c-4 -7 -5 -15 -2 -18 9 -9 19 4 14 18 -4 11 -6 11 -12 0z"/>
<path d="M3215 2000 c3 -5 10 -10 16 -10 5 0 9 5 9 10 0 6 -7 10 -16 10 -8 0
-12 -4 -9 -10z"/>
<path d="M3325 1946 c11 -8 27 -16 35 -16 20 0 1 16 -30 25 -24 7 -24 7 -5 -9z"/>
<path d="M4640 1949 c0 -5 5 -7 10 -4 6 3 10 8 10 11 0 2 -4 4 -10 4 -5 0 -10
-5 -10 -11z"/>
<path d="M3081 1924 c0 -11 3 -14 6 -6 3 7 2 16 -1 19 -3 4 -6 -2 -5 -13z"/>
<path d="M4600 1930 c-9 -6 -10 -10 -3 -10 6 0 15 5 18 10 8 12 4 12 -15 0z"/>
<path d="M3395 1910 c3 -5 8 -10 11 -10 2 0 4 5 4 10 0 6 -5 10 -11 10 -5 0
-7 -4 -4 -10z"/>
<path d="M4545 1910 c-3 -5 -2 -10 4 -10 5 0 13 5 16 10 3 6 2 10 -4 10 -5 0
-13 -4 -16 -10z"/>
<path d="M3070 1860 c0 -5 5 -10 11 -10 5 0 7 5 4 10 -3 6 -8 10 -11 10 -2 0
-4 -4 -4 -10z"/>
<path d="M3801 1854 c0 -11 3 -14 6 -6 3 7 2 16 -1 19 -3 4 -6 -2 -5 -13z"/>
<path d="M4796 1735 c3 -38 9 -104 14 -145 14 -114 40 -425 40 -478 0 -46 -2
-49 -35 -61 -53 -19 -76 -78 -105 -271 -15 -105 -119 -730 -125 -758 -5 -19
-2 -23 12 -20 14 3 21 24 34 108 101 635 131 821 141 854 9 28 25 48 55 70 48
33 47 29 34 161 -5 50 -12 122 -15 160 -19 211 -38 394 -46 420 -6 21 -8 10
-4 -40z"/>
<path d="M3047 1748 c-9 -31 -2 -33 11 -3 6 14 8 25 3 25 -5 0 -11 -10 -14
-22z"/>
<path d="M3110 1749 c0 -5 5 -7 10 -4 6 3 10 8 10 11 0 2 -4 4 -10 4 -5 0 -10
-5 -10 -11z"/>
<path d="M3046 1695 c-3 -8 -1 -15 4 -15 6 0 10 7 10 15 0 8 -2 15 -4 15 -2 0
-6 -7 -10 -15z"/>
<path d="M3035 1650 c3 -5 8 -10 11 -10 2 0 4 5 4 10 0 6 -5 10 -11 10 -5 0
-7 -4 -4 -10z"/>
<path d="M3031 1584 c0 -11 3 -14 6 -6 3 7 2 16 -1 19 -3 4 -6 -2 -5 -13z"/>
<path d="M3036 827 c3 -10 9 -15 12 -12 3 3 0 11 -7 18 -10 9 -11 8 -5 -6z"/>
<path d="M3120 696 c0 -2 7 -6 15 -10 8 -3 15 -1 15 4 0 6 -7 10 -15 10 -8 0
-15 -2 -15 -4z"/>
<path d="M3045 620 c3 -5 8 -10 11 -10 2 0 4 5 4 10 0 6 -5 10 -11 10 -5 0 -7
-4 -4 -10z"/>
<path d="M3510 620 c0 -5 5 -10 10 -10 6 0 10 5 10 10 0 6 -4 10 -10 10 -5 0
-10 -4 -10 -10z"/>
<path d="M3135 540 c4 -6 11 -8 16 -5 14 9 11 15 -7 15 -8 0 -12 -5 -9 -10z"/>
<path d="M2829 428 c-2 -27 3 -63 11 -71 4 -5 7 12 6 37 0 25 -4 46 -8 46 -5
0 -8 -6 -9 -12z"/>
<path d="M3327 349 c7 -7 15 -10 18 -7 3 3 -2 9 -12 12 -14 6 -15 5 -6 -5z"/>
<path d="M3320 266 c0 -2 7 -7 16 -10 8 -3 12 -2 9 4 -6 10 -25 14 -25 6z"/>
<path d="M3055 170 c3 -5 8 -10 11 -10 2 0 4 5 4 10 0 6 -5 10 -11 10 -5 0 -7
-4 -4 -10z"/>
<path d="M3125 80 c3 -5 11 -10 16 -10 6 0 7 5 4 10 -3 6 -11 10 -16 10 -6 0
-7 -4 -4 -10z"/>
<path d="M2802 30 c0 -19 2 -27 5 -17 2 9 2 25 0 35 -3 9 -5 1 -5 -18z"/>
</g>
</svg>
